<?xml version="1.0" encoding="UTF-8" standalone="no"?>
<!-- Created with Inkscape (http://www.inkscape.org/) -->

<svg
   width="210mm"
   height="297mm"
   viewBox="0 0 210 297"
   version="1.1"
   id="svg1"
   xml:space="preserve"
   inkscape:version="1.3.2 (1:1.3.2+202311252150+091e20ef0f)"
   sodipodi:docname="Restart_Icone.svg"
   xmlns:inkscape="http://www.inkscape.org/namespaces/inkscape"
   xmlns:sodipodi="http://sodipodi.sourceforge.net/DTD/sodipodi-0.dtd"
   xmlns="http://www.w3.org/2000/svg"
   xmlns:svg="http://www.w3.org/2000/svg"><sodipodi:namedview
     id="namedview1"
     pagecolor="#505050"
     bordercolor="#eeeeee"
     borderopacity="1"
     inkscape:showpageshadow="0"
     inkscape:pageopacity="0"
     inkscape:pagecheckerboard="0"
     inkscape:deskcolor="#d1d1d1"
     inkscape:document-units="mm"
     inkscape:zoom="1.6680395"
     inkscape:cx="446.93186"
     inkscape:cy="609.39804"
     inkscape:window-width="2502"
     inkscape:window-height="1043"
     inkscape:window-x="0"
     inkscape:window-y="0"
     inkscape:window-maximized="1"
     inkscape:current-layer="layer1" /><defs
     id="defs1" /><g
     inkscape:label="Layer 1"
     inkscape:groupmode="layer"
     id="layer1"><path
       style="fill:#274c77;fill-opacity:1"
       d="m 102.49331,165.6887 c -3.776151,-0.51275 -7.588666,-2.19607 -10.155575,-4.48392 -0.807461,-0.71967 -1.54317,-1.23344 -1.634909,-1.1417 -0.09174,0.0917 -0.166797,0.74727 -0.166797,1.45674 v 1.28995 l -2.050521,-0.0773 -2.050521,-0.0773 -0.07174,-5.22552 -0.07174,-5.22552 h 5.29726 5.29726 v 1.85208 c 0,1.01865 0.02977,1.94138 0.06615,2.05052 0.03638,0.10914 -0.677994,0.23389 -1.5875,0.27721 -0.909505,0.0433 -1.653645,0.18251 -1.653645,0.30929 0,0.12679 0.684609,0.77903 1.521354,1.44942 5.570744,4.46322 12.673854,4.67874 18.446194,0.55969 4.49834,-3.20995 6.91665,-9.23235 5.87907,-14.64083 -0.91465,-4.76766 -3.9812,-8.8314 -8.16295,-10.81739 l -1.54409,-0.73331 v -2.20971 c 0,-2.58998 -0.18097,-2.54339 3.30729,-0.85137 9.81785,4.76228 13.62368,16.45449 8.55086,26.26984 -1.56143,3.02122 -4.79232,6.25211 -7.81354,7.81355 -3.55991,1.83984 -7.80984,2.64329 -11.40191,2.15553 z M 85.779841,146.12872 c 0.0056,-2.01927 0.28282,-4.09145 0.588115,-4.39675 0.06134,-0.0613 0.972572,0.20637 2.024955,0.59491 1.692357,0.62482 1.896806,0.77265 1.769586,1.27953 -0.07911,0.31521 -0.221497,1.40868 -0.316413,2.42993 l -0.172575,1.85684 -1.94999,0.24723 -1.94999,0.24724 z m 16.715359,-4.03163 c -0.23248,-0.23247 -0.3175,-2.39094 -0.3175,-8.06048 0,-8.90068 -0.19465,-8.29077 2.64583,-8.29077 2.84047,0 2.64583,-0.60991 2.64583,8.29077 0,5.66954 -0.085,7.82801 -0.3175,8.06048 -0.19124,0.19125 -1.11713,0.3175 -2.32833,0.3175 -1.21121,0 -2.13709,-0.12625 -2.32833,-0.3175 z m -13.603752,-2.23739 -1.776872,-0.67348 0.624138,-1.23008 c 0.576442,-1.13609 2.940705,-4.53738 3.153964,-4.53738 0.05124,0 0.720551,0.72133 1.487362,1.60295 l 1.394203,1.60295 -0.531919,0.57986 c -0.292555,0.31893 -0.912303,1.20494 -1.377218,1.96893 -0.464915,0.76398 -0.924384,1.38246 -1.021043,1.37439 -0.09666,-0.008 -0.975335,-0.31773 -1.952615,-0.68814 z m 5.232593,-6.61452 -1.306779,-1.48981 0.777613,-0.63596 c 0.798567,-0.6531 5.109994,-2.86301 5.250468,-2.69124 0.106618,0.13037 0.951102,3.58288 0.951102,3.88839 0,0.13434 -0.386953,0.40115 -0.859896,0.59292 -0.472942,0.19177 -1.408845,0.68246 -2.079783,1.09043 -0.670938,0.40797 -1.266251,0.74027 -1.322917,0.73843 -0.05667,-0.002 -0.691079,-0.67376 -1.409808,-1.49316 z"
       id="path72800"
       sodipodi:nodetypes="cssscccccccsssssssscsssscccssssccccsssssssscssscsscsscssssscs"
       inkscape:export-filename="Restart_icone.png"
       inkscape:export-xdpi="20"
       inkscape:export-ydpi="20" /></g></svg>
