<?xml version="1.0" encoding="UTF-8" standalone="no"?>
<!-- Created with Inkscape (http://www.inkscape.org/) -->

<svg
   width="26.646723mm"
   height="25.910524mm"
   viewBox="0 0 26.646723 25.910524"
   version="1.1"
   id="svg1"
   xml:space="preserve"
   xmlns="http://www.w3.org/2000/svg"
   xmlns:svg="http://www.w3.org/2000/svg"><defs
     id="defs1" /><g
     id="layer1"
     transform="translate(-41.857474,-72.075319)"><path
       style="fill:#274c77;fill-opacity:1;stroke-width:0.198687"
       d="m 52.262324,97.95126 c -0.09386,-0.03541 -3.419055,-2.672376 -4.450273,-3.529089 -0.399016,-0.331492 -0.381116,-0.335489 -1.170015,0.260994 -0.374176,0.282919 -1.117958,0.83495 -1.652849,1.226749 -0.534891,0.391799 -1.362855,1.000604 -1.839921,1.352911 -0.944493,0.69748 -1.053852,0.752571 -1.211208,0.610171 -0.151406,-0.137022 -0.163723,-0.100292 0.638727,-1.904788 0.407961,-0.917402 0.926624,-2.093814 1.152584,-2.614244 0.383245,-0.882706 0.998888,-2.26878 1.249185,-2.812458 0.0599,-0.130108 0.331278,-0.745164 0.603064,-1.366795 1.917468,-4.385642 1.728477,-4.168141 2.348146,-2.702374 0.182201,0.430979 0.432184,1.02016 0.555517,1.309291 0.228,0.534499 0.785608,1.865647 1.10104,2.62846 0.22258,0.538265 0.725359,1.733811 1.359616,3.233003 0.501869,1.186265 0.916691,2.18659 1.089993,2.628461 0.05103,0.130108 0.174683,0.416002 0.274786,0.635329 0.378843,0.830041 0.361731,1.199394 -0.04839,1.044379 z m 6.894256,-2.420442 c -1.578552,-0.205807 -2.797357,-1.160497 -3.426407,-2.683897 -0.315407,-0.763844 -0.297558,-0.394086 -0.330783,-6.852646 -0.03429,-6.665466 -0.01112,-6.346347 -0.524334,-7.222216 -1.717593,-2.931304 -6.083105,-2.34719 -6.989989,0.935272 -0.09971,0.360892 -0.108063,0.547176 -0.114359,2.549605 -0.0088,2.796508 -0.06665,3.083592 -0.550174,2.729924 -0.153607,-0.112353 -0.158123,-4.706114 -0.0052,-5.327168 0.999499,-4.060187 6.471252,-4.694404 8.355585,-0.968476 0.49635,0.981446 0.511377,1.205511 0.510166,7.607222 -0.0012,6.043747 -0.0101,5.912391 0.461421,6.766392 1.555567,2.81737 5.787366,2.230821 6.772069,-0.938648 0.124853,-0.401864 0.124853,-0.401864 0.125642,-3.40787 8.08e-4,-3.006007 8.08e-4,-3.006007 0.145355,-3.103775 0.172541,-0.116689 0.334592,-0.100545 0.467633,0.04659 0.182338,0.201652 0.140071,5.727008 -0.04916,6.427027 -0.611546,2.26222 -2.672878,3.726194 -4.847424,3.442665 z m 4.295856,-10.490696 c -0.08779,-0.08239 -0.414298,-0.528296 -0.725576,-0.990904 -0.311279,-0.46261 -0.767215,-1.136809 -1.013193,-1.498223 -0.245976,-0.361412 -0.663342,-0.976473 -0.927477,-1.366799 -0.264134,-0.390325 -0.638613,-0.941448 -0.832172,-1.224718 -1.791835,-2.622305 -1.200587,-5.772508 1.352693,-7.207217 4.533674,-2.547509 9.187165,2.604738 6.309986,6.986284 -0.842591,1.283148 -3.377111,5.010304 -3.583012,5.269022 -0.155693,0.195631 -0.393308,0.208939 -0.581249,0.03256 z m 1.147582,-5.265376 c 2.937131,-1.028075 2.71756,-5.127704 -0.308728,-5.764302 -2.529191,-0.532032 -4.51215,2.364716 -3.087753,4.510659 0.757711,1.141541 2.197987,1.673147 3.396481,1.253643 z"
       id="path2" /></g></svg>
