<?xml version="1.0" encoding="UTF-8" standalone="no"?>
<!-- Created with Inkscape (http://www.inkscape.org/) -->

<svg
   width="210mm"
   height="297mm"
   viewBox="0 0 210 297"
   version="1.1"
   id="svg1"
   xml:space="preserve"
   inkscape:version="1.3.2 (1:1.3.2+202311252150+091e20ef0f)"
   sodipodi:docname="Save_Icone.svg"
   xmlns:inkscape="http://www.inkscape.org/namespaces/inkscape"
   xmlns:sodipodi="http://sodipodi.sourceforge.net/DTD/sodipodi-0.dtd"
   xmlns="http://www.w3.org/2000/svg"
   xmlns:svg="http://www.w3.org/2000/svg"><sodipodi:namedview
     id="namedview1"
     pagecolor="#505050"
     bordercolor="#eeeeee"
     borderopacity="1"
     inkscape:showpageshadow="0"
     inkscape:pageopacity="0"
     inkscape:pagecheckerboard="0"
     inkscape:deskcolor="#d1d1d1"
     inkscape:document-units="mm"
     inkscape:zoom="0.47421217"
     inkscape:cx="414.37148"
     inkscape:cy="597.83367"
     inkscape:window-width="2502"
     inkscape:window-height="1043"
     inkscape:window-x="0"
     inkscape:window-y="0"
     inkscape:window-maximized="1"
     inkscape:current-layer="layer1"
     showgrid="false" /><defs
     id="defs1" /><g
     inkscape:label="Layer 1"
     inkscape:groupmode="layer"
     id="layer1"><path
       style="fill:#274c77;fill-opacity:1"
       d="m 53.873301,209.45911 c -2.52001,-0.79972 -4.44131,-2.53648 -5.31659,-4.80594 -0.49071,-1.27233 -0.50424,-2.95048 -0.50424,-62.55844 0,-59.738034 0.0125,-61.283534 0.50732,-62.566504 0.6665,-1.72822 2.48048,-3.63386 4.19862,-4.41076 l 1.37948,-0.62377 48.647579,-0.0689 c 47.94149,-0.0679 48.65965,-0.0614 49.4771,0.45031 0.45622,0.28559 7.57822,7.28177 15.82666,15.547057 12.82933,12.855527 15.02031,15.161667 15.15721,15.953847 0.088,0.50933 0.12584,22.59542 0.0841,49.08021 l -0.076,48.15416 -0.61068,1.34907 c -0.76136,1.6819 -2.42245,3.33362 -4.15182,4.12838 l -1.32291,0.60797 -61.11875,0.0496 c -48.770699,0.0396 -61.332569,-0.0183 -62.177089,-0.28626 z m 15.80279,-31.84407 c 0.0717,-26.73808 0.076,-26.92955 0.62933,-28.12542 0.79248,-1.71272 2.03185,-3.01996 3.60766,-3.80522 l 1.36308,-0.67925 h 40.377359 40.37735 l 1.36307,0.67925 c 1.57581,0.78526 2.81519,2.0925 3.60766,3.80522 0.55334,1.19589 0.55761,1.38703 0.62934,28.1443 l 0.0722,26.94024 7.20382,-0.085 c 5.61709,-0.0663 7.32632,-0.1665 7.75996,-0.45493 1.37315,-0.91334 1.29083,2.02441 1.36481,-48.7103 l 0.0689,-47.22812 -12.30586,-12.302097 -12.30584,-12.302057 v 18.991284 c 0,16.54288 -0.0528,19.11764 -0.4095,19.97137 -0.52401,1.25412 -1.30481,2.08408 -2.63321,2.79898 l -1.05833,0.56957 h -33.73437 c -32.426099,0 -33.770299,-0.0192 -34.660429,-0.49397 -1.21256,-0.64681 -2.06465,-1.43728 -2.60482,-2.41645 -0.39394,-0.71409 -0.45116,-2.91804 -0.57018,-21.96041 l -0.13229,-21.166674 h -11.13905 c -11.82622,0 -11.98414,0.0157 -12.81823,1.27277 -0.33266,0.50136 -0.39496,8.554067 -0.463,59.845984 -0.0432,32.59666 -0.006,59.88298 0.0828,60.63625 0.18267,1.55038 1.02737,2.62912 2.19916,2.8085 0.38892,0.0595 3.71072,0.12609 7.38179,0.14789 l 6.67466,0.0396 z m 86.658399,0.68207 c 0.0437,-16.90492 -0.0257,-26.35192 -0.19676,-26.80186 -0.58268,-1.53257 1.34184,-1.46302 -40.48421,-1.46302 -41.814479,0 -39.901769,-0.069 -40.482939,1.45964 -0.29646,0.77974 -0.38039,52.57426 -0.0857,52.86898 0.0975,0.0975 18.40333,0.14708 40.679689,0.11024 l 40.50246,-0.067 z m -8.13723,-78.13883 V 79.917646 H 115.65352 83.109761 v 20.240634 20.24062 h 32.543759 32.54374 z m -17.06562,14.57787 c -0.43656,-0.1927 -1.03187,-0.61715 -1.32292,-0.94321 -0.5107,-0.57217 -0.53202,-1.02798 -0.61112,-13.06688 -0.0854,-13.001037 -0.0213,-13.923557 1.03326,-14.878357 0.51024,-0.46195 1.00852,-0.5061 5.71227,-0.5061 h 5.15327 l 0.77231,0.86407 0.7723,0.86407 v 13.057027 c 0,12.75317 -0.0126,13.07303 -0.5412,13.74504 -0.29766,0.37842 -0.98227,0.81053 -1.52135,0.96025 -1.45713,0.4047 -8.47411,0.33346 -9.44682,-0.0959 z m 6.21771,-14.71017 v -9.524997 h -1.32292 -1.32291 v 9.524997 9.525 h 1.32291 1.32292 z"
       id="path1"
       inkscape:export-filename="Save_icone.png"
       inkscape:export-xdpi="20"
       inkscape:export-ydpi="20" /></g></svg>
