<?xml version="1.0" encoding="UTF-8" standalone="no"?>
<!-- Created with Inkscape (http://www.inkscape.org/) -->

<svg
   width="210mm"
   height="297mm"
   viewBox="0 0 210 297"
   version="1.1"
   id="svg1"
   xml:space="preserve"
   inkscape:version="1.3.1 (9b9bdc1480, 2023-11-25, custom)"
   sodipodi:docname="Start_icone.svg"
   xmlns:inkscape="http://www.inkscape.org/namespaces/inkscape"
   xmlns:sodipodi="http://sodipodi.sourceforge.net/DTD/sodipodi-0.dtd"
   xmlns="http://www.w3.org/2000/svg"
   xmlns:svg="http://www.w3.org/2000/svg"><sodipodi:namedview
     id="namedview1"
     pagecolor="#505050"
     bordercolor="#eeeeee"
     borderopacity="1"
     inkscape:showpageshadow="0"
     inkscape:pageopacity="0"
     inkscape:pagecheckerboard="0"
     inkscape:deskcolor="#d1d1d1"
     inkscape:document-units="mm"
     inkscape:zoom="0.72693603"
     inkscape:cx="396.18342"
     inkscape:cy="561.25984"
     inkscape:window-width="1862"
     inkscape:window-height="1016"
     inkscape:window-x="0"
     inkscape:window-y="0"
     inkscape:window-maximized="1"
     inkscape:current-layer="layer1" /><defs
     id="defs1" /><g
     inkscape:label="Layer 1"
     inkscape:groupmode="layer"
     id="layer1"><path
       style="fill:#274c77;fill-opacity:1;stroke-width:0.67906"
       d="m 105.90821,179.4566 c -19.108394,-0.49367 -38.367412,-2.39971 -44.363718,-4.39062 -5.785386,-1.92088 -10.322693,-6.21806 -11.946277,-11.31406 -0.201923,-0.63379 -0.608956,-2.48637 -0.904519,-4.11686 -2.722271,-15.01756 -3.264201,-35.41023 -1.436922,-54.07102 0.869936,-8.88407 1.634611,-13.18431 2.77234,-15.590565 1.873158,-3.961661 5.067577,-6.92287 9.468431,-8.777182 4.984709,-2.100322 19.218396,-3.851763 38.864601,-4.782251 6.201274,-0.293706 27.984574,-0.290548 34.406434,0.005 17.78759,0.81859 33.36361,2.278777 36.90188,3.459396 4.52407,1.509558 8.24741,4.314877 10.51004,7.918691 1.4347,2.285139 1.94902,3.989598 2.89163,9.58295 3.17492,18.839691 3.20332,36.598621 0.0939,58.751471 -0.70656,5.03386 -1.13282,7.19581 -1.71794,8.71305 -1.80113,4.67051 -6.28568,8.58926 -11.80014,10.31137 -4.6557,1.45393 -18.50838,3.09564 -32.74704,3.88094 -7.93058,0.43739 -22.61231,0.6362 -30.99274,0.4197 z m 25.69253,-6.34375 c 12.90709,-0.62641 24.26176,-1.71242 32.03037,-3.06354 4.73209,-0.82301 7.24576,-1.95021 9.56728,-4.29026 1.39722,-1.40836 2.16583,-2.69301 2.49425,-4.16883 0.0964,-0.43303 0.4593,-2.6873 0.80654,-5.00951 1.97366,-13.19938 2.86812,-25.90932 2.4627,-34.99444 -0.37512,-8.40625 -1.15426,-15.51057 -2.64489,-24.116368 -0.52668,-3.040703 -0.74913,-3.918255 -1.27524,-5.030707 -1.17719,-2.489192 -4.03427,-4.795935 -7.35535,-5.938554 -2.80504,-0.965074 -14.50316,-2.347141 -26.47342,-3.127684 -23.83238,-1.554036 -52.142269,-0.761184 -70.419392,1.972177 -5.553319,0.830504 -6.882275,1.176187 -9.39783,2.444533 -3.749557,1.89053 -5.485586,4.038676 -6.225914,7.703885 -1.692042,8.376948 -2.67951,22.405248 -2.472497,35.125108 0.205926,12.65308 0.991205,19.9174 3.107567,28.7469 0.798295,3.3305 1.384119,4.60849 2.812393,6.13533 2.611173,2.79135 4.979492,3.81431 11.357282,4.90561 9.101088,1.55728 21.333851,2.53423 37.011621,2.95585 3.96155,0.10654 20.79395,-0.0641 24.61453,-0.2495 z M 97.912976,127.83381 c 0,-14.1309 0.06721,-25.69254 0.149365,-25.69254 0.08215,0 2.002349,1.05905 4.267119,2.35344 2.26476,1.2944 4.44115,2.53638 4.83642,2.75997 0.39527,0.22359 2.90164,1.65705 5.56971,3.18547 2.66807,1.52842 7.27656,4.15895 10.24108,5.84562 2.96453,1.68667 6.92621,3.94988 8.80374,5.02934 1.87753,1.07947 5.1722,2.96084 7.32147,4.1808 2.14928,1.21998 3.90778,2.28386 3.90778,2.3642 0,0.0803 -0.30318,0.30182 -0.67375,0.49217 -0.37057,0.19035 -10.45121,5.93239 -22.40142,12.76008 -11.95021,6.8277 -21.793777,12.41399 -21.874587,12.41399 -0.08081,0 -0.146927,-11.56164 -0.146927,-25.69254 z m 15.569294,9.64349 c 15.52591,-8.9114 16.50098,-9.47794 16.54953,-9.61577 0.0264,-0.0751 -1.59057,-1.07597 -3.59336,-2.22423 -2.00279,-1.14826 -5.13717,-2.95202 -6.96529,-4.00838 -6.46018,-3.73289 -14.59582,-8.37589 -14.84237,-8.4705 -0.21197,-0.0813 -0.24975,2.1385 -0.24975,14.67539 0,12.61656 0.0369,14.75709 0.25259,14.6743 0.13892,-0.0533 4.12081,-2.31717 8.84865,-5.03081 z"
       id="path1" /></g></svg>
