<?xml version="1.0" encoding="UTF-8" standalone="no"?>
<!-- Created with Inkscape (http://www.inkscape.org/) -->

<svg
   width="210mm"
   height="297mm"
   viewBox="0 0 210 297"
   version="1.1"
   id="svg1"
   xml:space="preserve"
   sodipodi:docname="carpet_icone.svg"
   inkscape:version="1.4 (1:1.4+202410161351+e7c3feb100)"
   xmlns:inkscape="http://www.inkscape.org/namespaces/inkscape"
   xmlns:sodipodi="http://sodipodi.sourceforge.net/DTD/sodipodi-0.dtd"
   xmlns="http://www.w3.org/2000/svg"
   xmlns:svg="http://www.w3.org/2000/svg"><sodipodi:namedview
     id="namedview1"
     pagecolor="#505050"
     bordercolor="#eeeeee"
     borderopacity="1"
     inkscape:showpageshadow="0"
     inkscape:pageopacity="0"
     inkscape:pagecheckerboard="0"
     inkscape:deskcolor="#d1d1d1"
     inkscape:document-units="mm"
     inkscape:zoom="0.75098906"
     inkscape:cx="397.47583"
     inkscape:cy="561.92563"
     inkscape:window-width="2502"
     inkscape:window-height="1043"
     inkscape:window-x="0"
     inkscape:window-y="0"
     inkscape:window-maximized="1"
     inkscape:current-layer="svg1" /><defs
     id="defs1" /><g
     id="layer1"
     style="fill:#6096ba;fill-opacity:1"
     inkscape:export-filename="carpet_icone1.svg"
     inkscape:export-xdpi="25"
     inkscape:export-ydpi="25"><path
       style="fill:#6096ba;fill-opacity:1"
       d="m 40.321339,230.9227 c -1.377385,-1.37738 -1.868384,-3.64502 -1.106738,-5.11136 0.204109,-0.39296 0.722252,-1.15513 1.151429,-1.69372 0.636427,-0.79866 0.812736,-1.32801 0.956104,-2.87059 0.170734,-1.83704 0.152913,-1.9174 -0.620638,-2.79842 -0.43803,-0.49889 -1.065041,-1.40978 -1.393356,-2.0242 l -0.596937,-1.11712 -0.07475,-73.025 c -0.0583,-56.95444 -0.0035,-73.285186 0.249018,-74.207314 0.21952,-0.801622 0.757446,-1.630064 1.670619,-2.572863 1.068314,-1.102973 1.305537,-1.502213 1.147095,-1.930525 -0.109864,-0.29699 -0.33421,-1.312092 -0.498547,-2.255783 -0.164336,-0.94369 -0.411045,-1.7158 -0.548242,-1.7158 -0.137197,0 -0.541694,-0.292245 -0.898881,-0.649432 -0.501079,-0.501079 -0.649432,-0.927161 -0.649432,-1.865223 0,-1.618228 0.51088,-2.520589 1.85464,-3.275824 1.020896,-0.573775 1.198672,-0.597059 2.153252,-0.28202 0.572267,0.188865 1.452412,0.799346 1.955879,1.356624 0.74842,0.828411 0.915395,1.223071 0.915395,2.163613 0,0.63271 -0.111344,1.49557 -0.247432,1.917467 -0.136087,0.421898 -0.290558,1.570758 -0.343268,2.553024 l -0.09584,1.785937 h 3.879816 3.879817 l -0.128803,-1.918229 c -0.09228,-1.374219 -0.269846,-2.073137 -0.626132,-2.464448 -1.016778,-1.116737 -0.493076,-3.689146 0.988276,-4.854377 2.714624,-2.135324 6.727487,2.218209 4.467198,4.846437 -0.570751,0.663659 -0.661139,1.025374 -0.66116,2.645833 l -2.4e-5,1.877076 4.295802,-0.05247 4.295801,-0.05247 -0.0855,-1.931906 c -0.06782,-1.532423 -0.202821,-2.058335 -0.652855,-2.543316 -1.073681,-1.157059 -0.427307,-3.975364 1.121588,-4.890319 1.43979,-0.850505 3.481496,-0.324988 4.332152,1.115057 0.611912,1.035886 0.576059,2.96537 -0.07777,4.185275 -0.361084,0.673705 -0.529167,1.492803 -0.529167,2.578729 v 1.591418 h 4.130802 4.130803 l -0.17362,-1.719792 c -0.09549,-0.945885 -0.419056,-2.229722 -0.719033,-2.85297 -0.58426,-1.213888 -0.527003,-2.410522 0.180832,-3.779325 0.953036,-1.842969 3.184541,-2.165952 4.791286,-0.693481 0.808841,0.741248 0.976873,1.091289 1.090246,2.271185 0.102283,1.064482 0.0068,1.655961 -0.403296,2.49713 -0.295529,0.606239 -0.588869,1.781369 -0.651866,2.6114 l -0.114541,1.509147 4.202288,0.07835 4.202288,0.07835 -0.180296,-1.719792 c -0.09916,-0.945885 -0.403275,-2.161532 -0.675804,-2.701438 -0.623724,-1.235659 -0.618878,-2.160605 0.01868,-3.564869 0.559312,-1.231925 1.629532,-1.935776 2.943386,-1.935776 0.617534,0 1.1025,0.264484 1.843277,1.005261 1.256727,1.256727 1.551693,2.528648 0.951107,4.101261 -0.350227,0.917056 -0.900367,4.35482 -0.740356,4.6264 0.02451,0.0416 1.900812,0.101127 4.169564,0.132291 l 4.125005,0.05666 -0.18429,-1.719234 c -0.10136,-0.945578 -0.4227,-2.186545 -0.71408,-2.757704 -1.18203,-2.316979 0.46124,-5.444937 2.8605,-5.444937 0.99423,0 2.16463,0.706442 2.61577,1.57884 0.50116,0.969147 0.51924,2.979864 0.0353,3.924403 -0.20134,0.392956 -0.44856,1.547903 -0.54937,2.566549 l -0.1833,1.852083 h 4.12125 4.12125 v -1.882548 c 0,-1.481917 -0.11261,-2.025713 -0.52917,-2.555274 -0.63702,-0.809845 -0.70235,-2.529595 -0.13757,-3.621747 1.21028,-2.340424 3.87869,-2.488899 5.35515,-0.29797 0.74937,1.111984 0.77619,2.486467 0.0741,3.796436 -0.37251,0.695023 -0.52917,1.492802 -0.52917,2.694803 v 1.707492 l 4.00242,0.0794 4.00242,0.0794 -0.13873,-2.018272 c -0.0869,-1.263818 -0.3097,-2.279197 -0.59608,-2.716282 -0.73573,-1.122862 -0.42249,-3.136725 0.66192,-4.255551 0.47465,-0.489715 1.15109,-0.962697 1.5032,-1.05107 0.87742,-0.220219 2.84187,0.689924 3.43153,1.589848 0.68754,1.049324 0.64321,3.311444 -0.0842,4.295289 -0.39109,0.528978 -0.5878,1.250388 -0.65201,2.391118 l -0.0919,1.633592 3.88097,-4.82e-4 c 2.13453,-2.65e-4 4.0693,0.07179 4.29948,0.160117 0.35995,0.138128 0.41851,-0.133076 0.41851,-1.938254 0,-1.918047 -0.0591,-2.15411 -0.68655,-2.740287 -0.58939,-0.550662 -0.66565,-0.795792 -0.53885,-1.732217 0.21339,-1.575803 0.67185,-2.422858 1.63279,-3.016755 1.60185,-0.989997 3.69238,-0.465763 4.52796,1.135456 0.66567,1.275616 0.61748,3.084862 -0.1067,4.006008 -0.48106,0.611894 -0.59531,1.093159 -0.59531,2.507486 v 1.750256 h 4.36562 4.36563 v -1.573279 c 0,-1.285354 -0.13316,-1.765449 -0.72761,-2.62334 -2.10612,-3.03951 0.77864,-6.943846 3.92744,-5.315536 1.56789,0.810786 2.37766,3.432181 1.46946,4.756929 -0.19679,0.287041 -0.42889,1.474393 -0.51579,2.638559 l -0.15799,2.116667 h 3.82308 3.82307 v -1.927538 c 0,-1.333998 -0.13245,-2.129677 -0.43012,-2.583991 -0.55862,-0.852565 -0.37019,-3.068902 0.34203,-4.022837 0.28323,-0.379356 0.9634,-0.922455 1.51148,-1.206886 0.88296,-0.458216 1.11343,-0.478562 2.02247,-0.178553 0.56427,0.186227 1.34642,0.673097 1.73811,1.081934 1.31507,1.372638 1.08544,4.459525 -0.3905,5.249424 -0.36557,0.195647 -0.57734,0.807578 -0.82058,2.371219 l -0.32785,2.10752 0.97119,0.85272 c 0.53416,0.468996 1.23207,1.340242 1.55092,1.936103 l 0.57973,1.083385 v 73.818745 73.81874 l -0.72242,1.22889 c -0.39733,0.67589 -1.0839,1.53306 -1.52572,1.90482 l -0.80331,0.67594 0.26032,2.291 c 0.25891,2.27861 0.38257,2.58517 1.5293,3.79116 1.16812,1.22849 0.64943,3.73317 -1.08922,5.25972 -3.08436,2.7081 -6.44093,-1.88099 -4.7927,-6.55257 0.42505,-1.20472 0.4969,-2.34412 0.23151,-3.67109 l -0.16537,-0.82682 h -3.67109 -3.67109 l 0.009,2.3151 c 0.007,1.73247 0.13763,2.58145 0.52019,3.37344 0.28117,0.58208 0.51459,1.29646 0.51872,1.5875 0.0171,1.2099 -0.63212,2.6892 -1.60911,3.66618 -0.93073,0.93073 -1.1296,1.01682 -2.02147,0.87504 -2.89698,-0.46054 -4.04505,-4.81923 -1.98732,-7.54498 0.58378,-0.7733 0.65087,-1.06941 0.523,-2.3083 -0.0807,-0.78167 -0.2116,-1.52625 -0.29095,-1.65464 -0.0793,-0.12838 -1.96349,-0.21369 -4.187,-0.18957 l -4.04274,0.0439 0.0224,1.70412 c 0.0134,1.02202 0.26237,2.40818 0.62191,3.46312 0.57371,1.68327 0.58175,1.82011 0.18675,3.17885 -0.83938,2.88737 -3.247,4.08493 -4.94396,2.45914 -1.75398,-1.68043 -1.97469,-3.37761 -0.77031,-5.92346 0.66262,-1.40068 0.79122,-1.97406 0.72739,-3.24333 l -0.0775,-1.54186 -4.29947,-0.12544 -4.29948,-0.12543 v 2.02032 c 0,1.62094 0.13454,2.30473 0.68063,3.45906 0.54683,1.1559 0.64482,1.65506 0.49844,2.53907 -0.48595,2.93482 -2.68734,4.57276 -4.62522,3.44139 -1.75554,-1.02492 -2.33251,-3.67462 -1.31635,-6.04523 0.37634,-0.87797 0.52883,-1.82034 0.52802,-3.26308 l -0.001,-2.02858 h -3.96761 -3.96761 l -0.003,1.5875 c -0.002,1.05767 0.23725,2.26524 0.71603,3.6182 0.71841,2.03015 0.71849,2.03111 0.25886,3.4892 -0.80823,2.564 -2.88297,3.56238 -4.70576,2.26445 -1.58914,-1.13158 -2.01097,-3.37692 -1.05389,-5.60971 0.30669,-0.71548 0.53745,-1.97026 0.58885,-3.20202 l 0.0845,-2.02549 -4.00269,-0.0611 -4.00269,-0.0611 -0.13533,1.01063 c -0.18313,1.36766 0.19787,3.88385 0.74966,4.95091 0.95738,1.85137 0.0218,4.50653 -1.91115,5.42377 -1.12931,0.53589 -2.17318,0.32498 -3.05077,-0.6164 -1.47564,-1.5829 -1.708,-3.29414 -0.73774,-5.43298 0.34523,-0.76101 0.64014,-2.07312 0.72847,-3.24114 l 0.14843,-1.9625 -3.14705,-0.003 c -1.730874,-0.002 -3.593528,-0.0767 -4.139231,-0.16691 l -0.992188,-0.164 0.0058,1.95285 c 0.0043,1.43134 0.155855,2.2708 0.567677,3.14347 1.147039,2.43064 0.591014,4.96798 -1.381543,6.30449 -1.578073,1.06922 -3.51837,0.30294 -4.385419,-1.73193 -0.525595,-1.23352 -0.449298,-2.21749 0.296098,-3.81868 0.528231,-1.1347 0.659338,-1.83503 0.661215,-3.53201 l 0.0023,-2.11666 h -4.075001 -4.075001 l -0.132912,0.99219 c -0.199179,1.48687 0.08971,3.07049 0.780454,4.27827 1.540331,2.69328 -0.23203,6.5035 -3.02517,6.5035 -0.994551,0 -2.370355,-1.10007 -2.869317,-2.29426 -0.523353,-1.25256 -0.445702,-2.31848 0.272084,-3.73497 0.599149,-1.18236 0.86242,-2.95328 0.739611,-4.97506 l -0.04968,-0.81784 -4.099741,0.0241 -4.099741,0.0241 -0.0013,1.93035 c -0.001,1.55294 0.128022,2.17328 0.660157,3.17289 0.782501,1.46992 0.830537,2.70732 0.161385,4.15717 -1.401999,3.03772 -4.252361,3.2084 -5.742773,0.34387 -0.578016,-1.11093 -0.455853,-3.06249 0.292307,-4.66962 0.497589,-1.06887 0.658873,-1.85323 0.658873,-3.20424 v -1.7889 l -4.43177,0.0997 -4.431771,0.0997 0.03809,1.78159 c 0.03094,1.44709 0.195767,2.0787 0.877885,3.36401 0.671474,1.26526 0.805126,1.76722 0.666829,2.5044 -0.391193,2.08524 -1.908795,3.77131 -3.394484,3.77131 -2.473524,0 -3.836368,-2.948 -2.662093,-5.75844 0.231561,-0.5542 0.485684,-2.09149 0.564717,-3.41619 l 0.143696,-2.40855 -4.038161,0.0104 -4.03816,0.0105 0.16614,2.16257 c 0.09138,1.18942 0.303408,2.75726 0.471181,3.48409 0.524027,2.27021 -0.531374,4.7529 -2.440061,5.73992 -1.197654,0.61933 -1.989468,0.47856 -3.001695,-0.53367 z M 166.15029,215.16734 c 0.46717,-0.63005 0.48505,-3.28969 0.49242,-73.22091 0.005,-50.089671 -0.0782,-72.727546 -0.26956,-73.085077 -0.15246,-0.284884 -0.49907,-0.63671 -0.77024,-0.781836 -0.32329,-0.173019 -21.29462,-0.272066 -60.91234,-0.287687 l -60.419296,-0.02382 -0.595909,0.744645 -0.595909,0.744645 -0.0013,72.12561 c -9.48e-4,52.0154 0.08028,72.35969 0.291332,72.96511 0.589358,1.69063 -4.056265,1.57654 61.993212,1.52248 l 60.30282,-0.0494 z M 57.986861,210.175 c -7.770633,-0.17902 -7.608965,-0.13619 -8.59159,-2.27604 -0.441178,-0.96076 -0.486524,-1.8951 -0.491799,-10.13346 -0.0048,-7.5421 0.06098,-9.20427 0.389553,-9.83966 0.833771,-1.61234 2.187321,-1.86012 3.354052,-0.614 l 0.616209,0.65813 v 8.99109 8.99109 l 8.968421,-0.0285 c 8.908599,-0.0283 8.972576,-0.0246 9.591146,0.55651 0.814045,0.76475 0.826109,2.08302 0.02741,2.99538 -0.567381,0.64813 -0.744279,0.68423 -3.770312,0.76945 -1.74625,0.0492 -6.288141,0.0177 -10.093091,-0.07 z m 20.374004,-0.009 c -1.446046,-0.62492 -1.850079,-2.52021 -0.767941,-3.60235 0.567445,-0.56744 0.886362,-0.64943 2.526176,-0.64943 1.689617,0 1.941436,0.0698 2.525568,0.70009 0.813057,0.87731 0.832206,1.96763 0.05052,2.87639 -0.49276,0.57287 -0.877836,0.71541 -2.182812,0.80796 -0.871477,0.0618 -1.839654,0.002 -2.151506,-0.13266 z m 10.824878,0.0601 c -0.792137,-0.15301 -1.658918,-1.30333 -1.658918,-2.20158 0,-0.40082 0.227347,-1.00984 0.505214,-1.35338 0.472786,-0.58454 0.713141,-0.63036 3.744578,-0.71386 3.601061,-0.0992 4.250035,0.0824 4.768551,1.3342 0.267334,0.6454 0.248081,0.93234 -0.11343,1.69043 -0.23948,0.5022 -0.741462,1.02944 -1.115515,1.17165 -0.66086,0.25126 -4.942919,0.30193 -6.13048,0.0725 z m 12.643337,-0.59296 c -0.64007,-0.64007 -0.94895,-2.16837 -0.57824,-2.86105 0.16833,-0.31453 0.67565,-0.58637 1.28099,-0.68641 1.53712,-0.25402 4.55149,-0.20221 5.09289,0.0875 0.66631,0.35659 1.10798,1.72009 0.81058,2.50232 -0.43917,1.15509 -1.25072,1.47201 -3.76943,1.47201 -1.94739,0 -2.40544,-0.0831 -2.83679,-0.51441 z m 12.27634,-0.13502 c -0.47243,-0.47243 -0.64943,-0.93706 -0.64943,-1.70479 0,-1.63706 0.5501,-1.87911 4.27057,-1.87911 1.70196,0 3.28722,0.074 3.52278,0.16435 0.62942,0.24153 1.25968,1.61539 1.05341,2.29627 -0.097,0.32015 -0.42152,0.84998 -0.72121,1.1774 -0.50645,0.55333 -0.76638,0.59531 -3.68578,0.59531 -2.98201,0 -3.17376,-0.0328 -3.79034,-0.64943 z m 13.26471,-0.16462 c -0.807,-0.95907 -0.87092,-1.80811 -0.19862,-2.63836 0.65803,-0.81263 3.69198,-1.22436 4.79998,-0.65139 1.27626,0.65999 1.43454,2.03495 0.37869,3.28975 -0.64163,0.76253 -0.79923,0.81405 -2.49002,0.81405 -1.6908,0 -1.8484,-0.0515 -2.49003,-0.81405 z m 10.68921,-0.0458 c -0.71191,-1.16762 -0.66219,-1.69072 0.24713,-2.60004 l 0.7734,-0.7734 h 8.92409 8.92409 l -0.14747,-8.66049 c -0.15693,-9.21661 -0.1017,-9.73278 1.11075,-10.38167 0.79088,-0.42326 1.40123,-0.32472 2.26362,0.36544 l 0.79375,0.63523 -0.0914,9.74835 c -0.0858,9.15424 -0.12324,9.80049 -0.61421,10.60391 -0.28757,0.47055 -0.82805,1.09563 -1.20109,1.38906 -0.6526,0.51334 -1.05206,0.5335 -10.56832,0.5335 h -9.89008 z m -76.633234,-9.21554 c -0.458157,-0.13448 -1.202298,-0.66511 -1.653646,-1.17916 l -0.820633,-0.93465 0.0076,-6.01007 c 0.0042,-3.30553 -0.07313,-28.81589 -0.171828,-56.68968 l -0.179458,-50.679611 0.872562,-0.993794 c 1.678615,-1.911836 -2.239949,-1.760511 45.588617,-1.760511 h 43.23338 l 0.8747,0.595312 c 0.48108,0.327422 1.10131,0.901381 1.37828,1.275465 0.49136,0.663651 0.5036,2.056102 0.50457,57.394559 9.5e-4,55.06242 -0.0135,56.73379 -0.49561,57.37954 -0.27312,0.36582 -0.78689,0.87923 -1.1417,1.14091 -0.61325,0.45228 -2.78132,0.48146 -43.90448,0.59099 -26.065677,0.0694 -43.590457,0.018 -44.092384,-0.1293 z m 23.068175,-4.93967 c -0.278165,-1.9186 -1.668679,-5.87329 -2.547343,-7.24477 -0.976533,-1.52424 -3.166755,-3.61538 -4.738862,-4.52449 -0.654844,-0.37868 -2.143125,-1.00493 -3.307291,-1.39167 -2.432521,-0.80808 -3.747639,-1.70351 -4.231695,-2.88124 -0.268877,-0.65419 -0.358937,-8.83152 -0.434947,-39.49241 -0.0951,-38.36179 -0.09168,-38.67209 0.433308,-39.261 0.629918,-0.706612 1.731875,-1.200237 4.231451,-1.895488 4.046537,-1.125535 6.904291,-3.343147 8.669819,-6.727766 0.88947,-1.705165 1.974949,-5.022823 1.725118,-5.272654 C 84.238657,86.386141 79.526105,86.30716 73.8215,86.26581 l -10.37201,-0.07518 1.27e-4,54.83489 c 7e-5,30.15919 0.02989,54.85977 0.06627,54.89018 0.03638,0.0304 4.709583,0.1231 10.384896,0.20598 5.675312,0.0829 10.421565,0.17706 10.547228,0.2093 0.125664,0.0322 0.146485,-0.50695 0.04627,-1.19817 z m 37.120899,-1.15943 c 0.73127,-4.64679 2.43938,-8.15288 5.46685,-11.2213 2.57031,-2.60507 4.93088,-4.17691 7.44578,-4.95796 l 1.88952,-0.58683 0.17984,-5.42396 c 0.0989,-2.98317 0.14159,-19.68508 0.0949,-37.11533 l -0.085,-31.69138 -1.05833,-0.26594 c -3.51634,-0.88357 -6.1838,-2.2899 -8.42514,-4.44185 -2.62631,-2.521582 -4.94865,-6.760918 -5.51595,-10.06915 L 121.28582,86.3226 H 105.10376 88.921669 l -0.166133,1.212068 c -0.209598,1.529186 -1.669811,4.919242 -3.082079,7.155411 -1.682837,2.664584 -4.4419,5.167586 -7.280964,6.605241 -1.40254,0.71022 -2.929491,1.27945 -3.649946,1.36065 l -1.238637,0.13962 v 37.23863 37.23863 l 2.711979,1.01614 c 1.491588,0.55887 3.213884,1.29607 3.827323,1.63822 2.609008,1.45517 5.436632,4.7378 6.943195,8.06045 0.889064,1.96079 1.863335,5.55822 1.863335,6.88023 0,0.49721 0.07132,0.97533 0.158482,1.06249 0.08717,0.0872 7.387889,0.13678 16.223826,0.11025 l 16.06535,-0.0482 z m -20.33002,-13.7587 c -3.477353,-0.19385 -4.599076,-0.53657 -7.332583,-2.24029 -2.441918,-1.52198 -4.582843,-4.01062 -6.008892,-6.98481 l -1.078318,-2.24896 v -25.92916 -25.92917 l 0.630328,-2.24895 c 1.453628,-5.18643 4.354451,-8.88453 8.550936,-10.90112 2.728068,-1.31096 4.864459,-3.44266 6.136319,-6.122845 1.03656,-2.184344 1.70402,-2.819789 2.96186,-2.819789 1.1627,0 2.11318,0.847412 2.60235,2.320164 0.4629,1.393662 2.19889,3.66039 3.60357,4.70527 0.50305,0.3742 1.86375,1.17621 3.02378,1.78224 4.03614,2.10859 6.54069,5.14633 8.11735,9.84545 l 0.62142,1.85208 0.0806,26.06146 c 0.0581,18.77094 -0.003,26.34699 -0.21761,27.08216 -0.52302,1.79009 -2.44416,4.66957 -4.62552,6.93289 -1.68177,1.74496 -2.52629,2.39072 -4.11035,3.14296 -3.32096,1.57705 -6.8528,2.04062 -12.95527,1.70042 z m 7.73793,-4.32084 c 3.96225,-0.83966 7.14845,-3.2255 8.87489,-6.64556 l 0.79613,-1.57712 0.0663,-25.52673 c 0.066,-25.43255 0.0642,-25.53313 -0.49849,-27.2656 -0.68994,-2.12437 -2.26487,-4.61969 -3.62158,-5.738 -0.55569,-0.45805 -1.67457,-1.09756 -2.48639,-1.42112 -1.54056,-0.61402 -4.60877,-3.24417 -6.32111,-5.41863 l -0.87633,-1.11282 -1.50492,1.65407 c -0.82771,0.90974 -1.98844,2.29926 -2.5794,3.08783 -0.931544,1.24303 -1.259182,1.48109 -2.463041,1.78963 -2.890104,0.74072 -5.533216,3.24117 -6.571919,6.21722 -0.443212,1.26987 -0.473896,3.06396 -0.473896,27.70812 v 26.35033 l 1.024443,2.01835 c 1.649055,3.24897 4.268541,5.3742 7.381289,5.98855 1.852034,0.36553 7.319614,0.30141 9.254074,-0.10852 z m 37.4403,-34.73603 0.0668,-54.83489 h -10.31938 c -8.83292,0 -10.31937,0.0552 -10.31937,0.383217 0,0.986029 1.42132,4.713499 2.33355,6.11982 1.94256,2.994716 4.31588,4.528275 8.76655,5.664631 2.46184,0.628563 3.24007,1.047401 3.66045,1.970042 0.32886,0.72177 0.46758,69.43785 0.15224,75.41118 -0.17106,3.2403 -0.22307,3.4875 -0.86969,4.13413 -0.39822,0.39821 -1.60893,0.99453 -2.8759,1.41647 -2.55653,0.8514 -6.5489,3.35369 -7.47196,4.68319 -0.34034,0.4902 -0.93721,1.26346 -1.32638,1.71835 -0.87439,1.02208 -2.25107,4.75263 -2.50559,6.7897 l -0.1896,1.51755 10.41577,-0.0693 10.41576,-0.0692 z m 11.5657,39.89876 c -1.24569,-0.50492 -1.31457,-0.84079 -1.29982,-6.33815 0.0147,-5.48784 0.13571,-6.11917 1.39016,-7.25443 0.48659,-0.44035 0.59826,-0.44746 1.30313,-0.083 1.51865,0.78533 1.53261,0.84864 1.45288,6.5897 -0.077,5.54813 -0.25549,6.47015 -1.3673,7.06517 -0.5889,0.31518 -0.74703,0.31739 -1.47905,0.0207 z M 49.446031,180.34661 c -0.5137,-0.65307 -0.54837,-1.03533 -0.54837,-6.04629 0,-5.1304 0.02469,-5.38591 0.603759,-6.24817 0.844874,-1.25806 1.91216,-1.3406 2.973072,-0.22993 l 0.788794,0.82579 -0.02251,5.57868 -0.02251,5.57868 -0.719852,0.61919 c -1.007595,0.86669 -2.336016,0.83277 -3.05239,-0.078 z m 0.708395,-19.69697 c -1.072907,-0.62491 -1.20865,-1.46596 -1.300614,-8.05849 -0.08707,-6.24185 -0.07911,-6.35319 0.513744,-7.18436 0.331203,-0.46433 0.834141,-0.91786 1.11764,-1.00784 0.650175,-0.20636 2.311339,0.56569 2.673608,1.2426 0.352706,0.65904 0.04629,12.74669 -0.349441,13.78499 -0.155139,0.40704 -0.616575,0.91306 -1.025414,1.12448 -0.869369,0.44957 -1.012144,0.45821 -1.629523,0.0986 z m 107.372194,-0.48863 c -0.25376,-0.2804 -0.56075,-0.95041 -0.6822,-1.4889 -0.21795,-0.96635 -0.0837,-11.31153 0.16235,-12.50976 0.16102,-0.78418 1.34629,-1.89568 2.02149,-1.89568 0.28371,0 0.86163,0.24623 1.28428,0.54718 l 0.76845,0.54718 -0.0115,5.86897 c -0.006,3.22792 -0.11057,6.38127 -0.23162,7.00744 -0.40415,2.09054 -2.21049,3.13988 -3.31123,1.92357 z M 49.446031,138.27786 c -0.500206,-0.63591 -0.54837,-1.05077 -0.54837,-4.72337 0,-3.75558 0.04064,-4.08655 0.604617,-4.92343 0.727908,-1.08014 1.201555,-1.20531 2.403208,-0.63509 1.361373,0.64602 1.542278,1.37442 1.443944,5.81399 -0.08613,3.8884 -0.0863,3.88935 -0.828503,4.52713 -1.030456,0.88547 -2.351813,0.86002 -3.074896,-0.0592 z m 107.937519,0.1747 c -0.76458,-0.76458 -0.8628,-1.45883 -0.76053,-5.3757 0.0888,-3.39923 0.12115,-3.57443 0.83341,-4.50781 0.97645,-1.27958 1.96155,-1.31941 2.9707,-0.1201 l 0.71609,0.85102 -0.11031,3.88303 c -0.1065,3.749 -0.13544,3.91598 -0.83833,4.83752 -0.84713,1.11063 -1.96121,1.28187 -2.81103,0.43204 z m 0.20778,-16.64314 -0.85217,-0.76142 0.049,-7.45867 c 0.0467,-7.09709 0.0758,-7.49627 0.60143,-8.23441 0.6955,-0.97674 1.77896,-1.02967 2.8167,-0.1376 l 0.74236,0.63815 0.0835,6.83633 c 0.0905,7.40215 -0.0407,8.43642 -1.18393,9.33567 -0.91423,0.71914 -1.2437,0.68731 -2.25698,-0.21805 z M 49.77548,121.67043 c -0.672649,-0.57859 -0.754761,-0.84653 -0.912187,-2.97656 -0.22577,-3.05475 0.0071,-11.62042 0.346267,-12.73501 0.51638,-1.69712 2.215456,-2.06847 3.590705,-0.78479 0.59113,0.55177 0.595312,0.61004 0.595312,8.29556 v 7.73988 l -0.697139,0.54837 c -0.923188,0.72618 -2.015031,0.69351 -2.922958,-0.0875 z M 49.671058,98.514105 48.897661,97.740708 v -10.45417 c 0,-6.74307 0.0999,-10.718574 0.281416,-11.198997 0.354304,-0.937746 1.465455,-2.123321 2.492335,-2.659271 1.042864,-0.544293 18.044937,-1.072018 19.194675,-0.595781 1.394353,0.57756 1.768903,2.741738 0.665474,3.845166 -0.623307,0.623307 -0.788622,0.649432 -4.109539,0.649432 -2.477105,0 -3.729958,-0.112751 -4.409964,-0.396875 -1.155428,-0.482769 -3.093433,-0.515815 -3.879188,-0.06615 -0.317855,0.181901 -1.768543,0.390261 -3.223751,0.463021 l -2.645833,0.132292 v 10.273519 10.273519 l -0.742359,0.640543 c -0.992304,0.856208 -1.903273,0.813741 -2.849869,-0.132855 z m 107.838052,0.135131 -0.79375,-0.635639 0.0961,-9.77584 c 0.0529,-5.376711 0.0151,-10.031176 -0.084,-10.343255 -0.16694,-0.525987 -0.35778,-0.567415 -2.61378,-0.567415 -1.86816,0 -2.64793,-0.114582 -3.35561,-0.49309 -0.86269,-0.461415 -0.92696,-0.587304 -1.00053,-1.959776 l -0.0786,-1.466686 1.34841,-0.289182 c 1.73738,-0.372602 5.1261,-0.368767 6.48086,0.0073 0.62845,0.174468 1.51401,0.750117 2.18281,1.418919 l 1.12535,1.125352 v 10.994721 10.994721 l -0.68497,0.81405 c -0.82321,0.978329 -1.55859,1.027624 -2.62232,0.175784 z M 77.592924,76.677655 c -0.86344,-0.86344 -0.871665,-2.237697 -0.01932,-3.228605 0.560103,-0.651158 0.81245,-0.733635 2.271327,-0.742358 1.476085,-0.0088 1.705522,0.06488 2.280308,0.732545 0.909108,1.05601 0.882272,2.599822 -0.05805,3.33948 -1.063518,0.836563 -3.593789,0.779411 -4.474262,-0.101062 z m 11.052814,0.482957 c -0.476472,-0.206738 -1.118913,-1.538327 -1.118913,-2.319173 0,-0.362914 0.287455,-0.993905 0.638789,-1.402202 l 0.638788,-0.742358 3.263816,0.05226 3.263815,0.05226 0.753946,0.841294 c 0.611164,0.68197 0.722686,0.997593 0.588882,1.666615 -0.329813,1.649065 -0.858267,1.87918 -4.458287,1.941359 -1.778997,0.03073 -3.385873,-0.0098 -3.570836,-0.09005 z M 101.95968,76.70275 c -0.87658,-0.876584 -0.93574,-2.496567 -0.11821,-3.23726 0.44889,-0.406704 1.05361,-0.521326 3.13175,-0.593616 l 2.57545,-0.08959 0.7047,0.837492 c 0.87384,1.038498 0.89337,1.870859 0.0665,2.832659 -0.60319,0.701592 -0.77682,0.747369 -3.16193,0.833599 -2.41056,0.08715 -2.55393,0.061 -3.19822,-0.583286 z m 12.75308,0.338558 c -0.59582,-0.347031 -1.25677,-1.626623 -1.25677,-2.433086 0,-0.345662 0.30695,-0.917122 0.6821,-1.26991 0.61538,-0.578683 0.95151,-0.65025 3.43596,-0.731558 l 2.75385,-0.09013 0.79738,0.797377 c 1.03525,1.035247 1.09596,2.415634 0.14795,3.36365 -0.60671,0.606701 -0.82867,0.648903 -3.37344,0.641386 -1.49821,-0.0044 -2.93237,-0.129405 -3.18703,-0.277733 z m 13.22916,0 c -0.60235,-0.350838 -1.25676,-1.629545 -1.25676,-2.455687 0,-0.402217 0.31115,-0.912896 0.81405,-1.336056 0.69217,-0.582425 1.07029,-0.684978 2.52556,-0.684978 1.48632,0 1.80121,0.08968 2.3931,0.681574 0.59189,0.591889 0.66338,0.842928 0.54336,1.907789 -0.19133,1.697441 -0.83866,2.17546 -2.93195,2.165091 -0.89338,-0.0044 -1.83269,-0.129405 -2.08736,-0.277733 z m 10.57662,-0.177726 c -1.13221,-1.251075 -1.08739,-2.342895 0.15205,-3.703682 0.50357,-0.552878 0.76403,-0.595313 3.65388,-0.595313 1.71141,0 3.4192,0.116928 3.79508,0.259839 0.97195,0.369536 1.30857,1.420177 0.88319,2.756588 -0.48442,1.521905 -1.08661,1.737568 -4.8646,1.742173 -2.7162,0.0033 -3.26357,-0.06619 -3.6196,-0.459605 z"
       id="path1" /></g></svg>
