<?xml version="1.0" encoding="UTF-8" standalone="no"?>
<!-- Created with Inkscape (http://www.inkscape.org/) -->

<svg
   width="210mm"
   height="297mm"
   viewBox="0 0 210 297"
   version="1.1"
   id="svg1"
   xml:space="preserve"
   inkscape:version="1.4 (1:1.4+202410161351+e7c3feb100)"
   sodipodi:docname="clock_icone.svg"
   xmlns:inkscape="http://www.inkscape.org/namespaces/inkscape"
   xmlns:sodipodi="http://sodipodi.sourceforge.net/DTD/sodipodi-0.dtd"
   xmlns="http://www.w3.org/2000/svg"
   xmlns:svg="http://www.w3.org/2000/svg"><sodipodi:namedview
     id="namedview1"
     pagecolor="#505050"
     bordercolor="#eeeeee"
     borderopacity="1"
     inkscape:showpageshadow="0"
     inkscape:pageopacity="0"
     inkscape:pagecheckerboard="0"
     inkscape:deskcolor="#d1d1d1"
     inkscape:document-units="mm"
     inkscape:zoom="0.75098906"
     inkscape:cx="397.47583"
     inkscape:cy="560.59405"
     inkscape:window-width="2502"
     inkscape:window-height="1043"
     inkscape:window-x="0"
     inkscape:window-y="0"
     inkscape:window-maximized="1"
     inkscape:current-layer="layer1" /><defs
     id="defs1" /><g
     inkscape:label="Layer 1"
     inkscape:groupmode="layer"
     id="layer1"><path
       style="fill:#6096ba;fill-opacity:1"
       d="m 45.723807,216.34858 c -4.198,-1.13233 -7.318047,-4.07839 -8.566106,-8.0884 -0.487596,-1.56666 -0.503004,-3.39556 -0.509062,-60.42702 -0.0044,-41.11097 0.07963,-59.198687 0.279101,-60.098022 0.382267,-1.723515 2.179323,-4.70004 3.778259,-6.258058 1.337158,-1.302939 3.582189,-2.588561 5.718816,-3.274892 2.059958,-0.661703 9.960398,-0.74943 67.491495,-0.74943 61.73669,0 56.01778,-0.183709 59.47091,1.910382 3.91077,2.371617 6.60665,6.067507 7.19475,9.863575 0.17274,1.115035 0.26577,21.723285 0.26454,58.605205 -0.002,48.11426 -0.0598,57.15942 -0.37746,58.66251 -0.9872,4.67113 -4.2268,8.4821 -8.27271,9.73175 -1.66647,0.51472 -2.66502,0.52275 -63.39023,0.5095 -52.275292,-0.0114 -61.908627,-0.0705 -63.082303,-0.3871 z m 99.841903,-4.24829 13.52544,-0.16888 0.15968,-1.5277 c 0.0878,-0.84023 0.41377,-2.20683 0.72433,-3.03687 0.77821,-2.07996 3.38813,-5.89896 5.10158,-7.46496 2.33653,-2.13545 6.57645,-4.04809 8.97378,-4.04809 1.62709,0 2.51675,-0.27726 2.42043,-0.75432 -0.0485,-0.23997 -0.14898,-21.80802 -0.22339,-47.92901 -0.0744,-26.12099 -0.13953,-47.522469 -0.14473,-47.558849 -0.005,-0.03638 -0.63927,-0.06615 -1.40906,-0.06615 -4.02037,0 -8.56336,-2.39071 -11.44235,-6.021438 -2.21105,-2.788377 -4.35595,-7.858744 -4.35595,-10.297099 v -0.861526 l -50.42896,0.01028 c -49.561913,0.0101 -50.426675,0.019 -50.296365,0.517303 0.07292,0.278862 -0.08644,1.509339 -0.354154,2.734393 -0.803763,3.678081 -2.711691,6.891875 -5.775492,9.728485 -3.016709,2.79301 -5.750242,3.92502 -9.477989,3.92502 h -1.406615 v 48.247631 48.24764 l 1.982145,0.16755 c 2.388916,0.20194 4.784252,0.96988 6.749105,2.16376 1.845717,1.12149 4.763704,3.94956 5.668972,5.49428 1.033858,1.76415 2.25986,5.32067 2.445111,7.09305 l 0.162982,1.55933 17.094279,0.0681 c 22.242188,0.0886 53.289951,-0.009 70.307221,-0.2219 z m -44.3494,-3.58156 c -5.724465,-0.46571 -11.37152,-1.67379 -15.723888,-3.36382 -4.99966,-1.94137 -11.886107,-6.24931 -16.949002,-10.60274 -5.779666,-4.96975 -12.460021,-13.7505 -15.616472,-20.5265 -2.146327,-4.60755 -4.493625,-11.86751 -5.303815,-16.40417 -0.580536,-3.25071 -0.783379,-11.06916 -0.404999,-15.61041 0.783294,-9.40097 4.581714,-20.07275 10.152335,-28.52332 2.598251,-3.94151 4.130152,-5.81832 7.673848,-9.40162 8.215687,-8.30749 16.741014,-13.379817 28.042746,-16.684634 4.303928,-1.25854 5.960717,-1.505385 12.759457,-1.901029 6.80084,-0.395766 11.15344,-0.0741 16.45217,1.215846 7.21051,1.755358 10.88515,3.248803 17.0453,6.927532 7.97836,4.764532 15.86138,12.427775 21.42453,20.827205 4.64582,7.01441 8.10465,16.68976 9.22799,25.81328 0.3592,2.91737 0.35414,10.96547 -0.009,14.23873 -1.99448,17.98011 -12.42925,34.89119 -27.7954,45.04651 -10.31499,6.81707 -19.14913,9.28875 -32.90605,9.20671 -2.91042,-0.0174 -6.54182,-0.13326 -8.06979,-0.25757 z m 16.40416,-4.59222 c 4.3733,-0.4754 6.98744,-1.09499 11.08153,-2.62648 7.28944,-2.72678 13.28411,-6.62043 19.57014,-12.71115 8.14375,-7.89074 13.50415,-17.2006 16.03181,-27.84382 1.22817,-5.17145 1.56873,-8.81389 1.3816,-14.77708 -0.28338,-9.03093 -1.59106,-14.81078 -5.00266,-22.11139 -4.7705,-10.20859 -13.82107,-20.39843 -23.06547,-25.968907 -5.18852,-3.126495 -11.95427,-5.812769 -17.37106,-6.897013 -1.08043,-0.216263 -3.92896,-0.602554 -6.33005,-0.858423 -3.84122,-0.409334 -4.9036,-0.426366 -8.84416,-0.141793 -5.269441,0.38054 -7.253882,0.728656 -12.291134,2.156142 -5.620228,1.592693 -11.882274,4.677415 -17.270469,8.507534 -2.205575,1.56781 -9.109439,8.06217 -11.34702,10.67398 -4.204845,4.9081 -8.872917,14.16657 -10.934537,21.68714 -1.356626,4.94883 -1.612193,7.28779 -1.604493,14.68438 0.0077,7.35451 0.227331,9.02471 2.018381,15.34583 3.038849,10.72496 9.332627,20.62567 17.614892,27.70989 7.849233,6.71382 15.874931,10.90231 23.977289,12.51338 1.516327,0.30151 3.928907,0.64483 5.361291,0.76294 4.42773,0.36509 13.19648,0.31093 17.02412,-0.10516 z m -12.43541,-4.2816 c -1.6588,-0.11868 -6.980904,-0.84087 -8.731251,-1.1848 -2.325065,-0.45686 -8.664457,-2.69739 -11.104,-3.92449 -3.795909,-1.90934 -8.571972,-5.25997 -12.427011,-8.71811 -3.760918,-3.37372 -8.385597,-9.39044 -10.62315,-13.82075 -5.431268,-10.75382 -7.259206,-21.62168 -5.421753,-32.23463 1.187212,-6.85722 1.767178,-8.55801 5.458472,-16.00729 2.892974,-5.83822 8.225925,-12.53237 13.056123,-16.38862 7.248143,-5.78663 13.808977,-8.999768 23.028135,-11.277911 6.733005,-1.663791 10.518885,-1.900252 16.354315,-1.02147 4.92337,0.741432 12.91615,3.155699 16.65585,5.031001 7.82818,3.92551 16.11638,11.35459 21.24991,19.04724 2.06154,3.08925 4.92812,9.06555 6.03315,12.57802 2.63166,8.3651 2.9832,18.33963 0.96559,27.39751 -2.66589,11.96831 -9.6427,22.35859 -20.49542,30.523 -3.89461,2.92988 -4.74954,3.48394 -7.54363,4.88878 -7.91145,3.97779 -17.20707,5.77418 -26.45533,5.11252 z m 12.7,-5.09312 c 5.46004,-1.02575 11.73515,-3.4917 15.74271,-6.18646 2.36451,-1.58995 6.63751,-5.05019 8.68593,-7.0338 4.02902,-3.90156 7.16789,-8.27845 9.58777,-13.36934 1.94394,-4.08963 2.95418,-7.23388 3.83249,-11.92819 1.05152,-5.62005 1.19093,-8.2629 0.66293,-12.5677 -1.21738,-9.9254 -2.78517,-14.16881 -8.5343,-23.09911 -2.96512,-4.60581 -10.16818,-11.22314 -16.13829,-14.82599 -3.81553,-2.30259 -10.96433,-4.76066 -16.70981,-5.745564 -3.36578,-0.576968 -8.77201,-0.687834 -11.30219,-0.231775 -3.23187,0.582539 -9.129387,2.114579 -11.644218,3.024919 -7.919543,2.86675 -16.258075,9.23848 -21.986363,16.80043 -1.946742,2.56991 -6.266269,11.03055 -7.361939,14.41979 -1.465413,4.53298 -2.086419,8.38161 -2.091936,12.96459 -0.0062,5.12798 0.377775,8.05586 1.678404,12.79904 2.258851,8.23767 6.023437,15.07166 11.476309,20.83337 3.610546,3.81504 9.615577,8.13266 15.130627,10.87892 3.078122,1.53277 8.407149,3.00473 13.229166,3.65408 3.95654,0.53281 11.88327,0.33784 15.74271,-0.38721 z m -9.99978,-2.94097 c -1.06999,-0.43463 -1.43079,-1.84687 -1.33286,-5.2171 0.0827,-2.84667 0.12611,-3.05415 0.74319,-3.55331 0.87334,-0.70646 2.29625,-0.49085 3.13523,0.47506 0.58688,0.67566 0.61155,0.86686 0.52917,4.10128 -0.0944,3.70472 -0.22117,4.03013 -1.67391,4.29561 -0.43656,0.0798 -1.06693,0.0341 -1.40082,-0.10154 z M 87.854851,184.2657 c -0.77022,-0.16086 -1.225182,-0.6016 -1.636325,-1.58519 -0.322968,-0.77265 -0.307699,-0.99683 0.136257,-2.00047 0.274992,-0.62166 0.97446,-1.62907 1.554372,-2.23869 0.895908,-0.94179 1.213809,-1.10839 2.115052,-1.10839 2.384779,0 3.204934,2.2255 1.672666,4.53881 -0.433502,0.65446 -1.012409,1.39286 -1.286459,1.64087 -0.599776,0.54279 -1.82858,0.90489 -2.555563,0.75306 z m 39.231189,-0.6502 c -1.65644,-1.36487 -2.33091,-4.62629 -1.18028,-5.70725 1.61777,-1.51982 4.3484,0.13002 5.21473,3.15074 0.28897,1.00756 -0.2222,2.43771 -1.02481,2.86726 -0.88155,0.47179 -2.22874,0.3327 -3.00964,-0.31075 z M 71.480383,170.48661 c -0.588913,-0.65074 -0.827075,-2.19489 -0.447826,-2.90352 0.165435,-0.30912 1.017982,-1.15888 1.89455,-1.88837 1.918405,-1.59652 2.801285,-1.71955 3.967889,-0.55294 1.176327,1.17632 1.074214,2.35166 -0.337358,3.88303 -0.610916,0.66277 -1.43844,1.37448 -1.838944,1.58159 -1.05204,0.54403 -2.692478,0.48335 -3.238311,-0.11979 z m 71.006797,-0.25824 c -1.27146,-0.67579 -2.64171,-2.51768 -2.64171,-3.55098 0,-1.12086 1.14751,-2.30901 2.23003,-2.30901 1.03516,0 3.39591,1.60656 4.14734,2.8224 0.62849,1.01692 0.54828,2.21617 -0.20381,3.04722 -0.57487,0.63522 -2.32759,0.63045 -3.53185,-0.01 z m -34.79774,-13.5213 c -3.37799,-0.39187 -5.41718,-1.92326 -6.91367,-5.19202 -1.011993,-2.21048 -1.016541,-5.244 -0.0109,-7.29937 0.92251,-1.88556 3.03029,-4.07204 4.59096,-4.7624 l 1.23135,-0.54468 -0.14216,-9.16438 c -0.15334,-9.88569 -0.085,-10.56303 1.15855,-11.48477 0.6125,-0.45399 0.81704,-0.4788 1.65825,-0.20118 1.72535,0.56942 1.74411,0.69117 1.74411,11.31925 v 9.48541 l 1.1977,0.58189 c 0.65874,0.32004 1.32704,0.58189 1.48511,0.58189 0.15807,0 3.79267,-3.48258 8.07688,-7.73906 4.2842,-4.25648 8.09209,-7.89764 8.46197,-8.09145 1.32601,-0.69482 3.00334,0.68412 3.00334,2.46906 0,1.21459 -0.66293,2.04141 -4.80268,5.98999 -2.23348,2.13033 -5.70428,5.46408 -7.71291,7.40833 l -3.65205,3.53501 0.30822,0.87059 c 0.1876,0.52987 0.26904,1.92924 0.2081,3.57551 -0.1197,3.23375 -0.61524,4.29192 -3.07738,6.57143 -2.03783,1.88667 -3.83061,2.43691 -6.81275,2.09095 z m 2.95836,-5.05746 c 2.28322,-1.10529 2.88165,-3.58132 1.4219,-5.88312 -0.43356,-0.68364 -1.1777,-1.48041 -1.65365,-1.7706 -1.74408,-1.06337 -4.12318,-0.43308 -5.23242,1.38622 -0.75801,1.24323 -0.72209,3.53837 0.0739,4.71949 1.36474,2.02513 3.27276,2.57309 5.3903,1.54801 z m -47.200282,-1.7106 c -0.319157,-0.22354 -0.716422,-0.86083 -0.882812,-1.41619 -0.635873,-2.12235 0.688879,-2.93986 4.76399,-2.93986 3.014131,0 3.752209,0.24291 4.401501,1.44857 0.442275,0.82126 0.440547,0.90004 -0.04124,1.88084 -0.619383,1.26091 -0.996848,1.37285 -4.743459,1.40672 -2.228714,0.0201 -3.054719,-0.0696 -3.497977,-0.38008 z m 82.828002,0.0897 c -0.76383,-0.36904 -1.46275,-1.86648 -1.25588,-2.69073 0.0892,-0.3556 0.45685,-0.92328 0.8169,-1.26152 0.6157,-0.57843 0.84161,-0.61239 3.79977,-0.57122 3.24988,0.0452 4.0185,0.2418 4.82151,1.23314 1.12393,1.38752 0.2481,3.02553 -1.79721,3.36121 -1.85414,0.3043 -5.69684,0.26164 -6.38509,-0.0709 z M 73.247125,130.47905 c -1.451435,-0.71845 -2.987065,-2.42047 -2.987065,-3.31071 0,-0.96952 0.76567,-2.14705 1.628464,-2.50443 0.965767,-0.40003 2.51348,0.32819 4.258515,2.00371 1.031491,0.99039 1.256771,1.3732 1.256771,2.13555 0,2.00464 -1.924774,2.78066 -4.156685,1.67588 z m 67.830325,0.25218 c -0.71893,-0.41791 -1.2797,-1.92506 -0.99129,-2.66426 0.24697,-0.63296 1.53502,-1.93175 2.66246,-2.68465 1.43162,-0.95603 3.17334,-0.3475 3.71658,1.29852 0.27953,0.84699 0.24403,1.04 -0.35886,1.95103 -0.42104,0.63624 -1.18536,1.26833 -2.06172,1.70503 -1.49942,0.7472 -2.19996,0.8403 -2.96717,0.39433 z M 126.1353,117.66934 c -0.66529,-0.5598 -0.84139,-0.91163 -0.83943,-1.67708 0.003,-1.15374 1.29075,-3.54178 2.2483,-4.16919 1.29205,-0.84659 3.27118,0.11002 3.6623,1.77018 0.21162,0.89821 -0.93618,3.22602 -1.94483,3.94424 -1.26574,0.90128 -2.16676,0.93928 -3.12634,0.13185 z m -37.075524,0.0198 c -0.802428,-0.4444 -2.660133,-3.46223 -2.660133,-4.32137 0,-0.81215 1.360045,-2.18064 2.167187,-2.18064 1.538993,0 4.182813,2.93272 4.182813,4.63989 0,1.28695 -0.885811,2.24131 -2.069725,2.2299 -0.535141,-0.005 -1.264205,-0.17066 -1.620142,-0.36778 z m 18.084514,-7.32416 c -0.43004,-0.47574 -0.50402,-0.97655 -0.50402,-3.41211 0,-2.43588 0.0739,-2.93617 0.50402,-3.41118 0.75938,-0.83865 2.12893,-0.74252 3.0882,0.21676 0.75068,0.75067 0.7734,0.85037 0.7734,3.39346 0,2.39662 -0.0522,2.66912 -0.61236,3.19535 -0.83113,0.7808 -2.55095,0.79018 -3.24924,0.0177 z m 62.76372,101.61557 c 3.21124,-0.6506 5.36602,-3.08384 6.09928,-6.88746 0.28469,-1.47678 0.36464,-2.66772 0.23646,-3.52248 l -0.19365,-1.29138 -1.76424,0.16475 c -4.69197,0.43814 -9.4385,4.948 -10.33995,9.82438 -0.15836,0.85669 -0.288,1.68458 -0.28807,1.83975 -1.7e-4,0.35211 4.3176,0.26399 6.25017,-0.12756 z M 53.488813,211.79494 c -0.07599,-0.25466 -0.279866,-1.05834 -0.453065,-1.78594 -1.347462,-5.66064 -5.895768,-9.65729 -10.990283,-9.65729 h -1.115919 l 0.106852,1.38906 c 0.05877,0.76399 0.155915,2.11089 0.21588,2.99312 0.135996,2.00082 1.060286,3.89826 2.558116,5.25146 1.846793,1.66847 3.604436,2.19542 7.483643,2.24362 2.105401,0.0262 2.319459,-0.0162 2.194776,-0.43403 z M 176.04259,92.203278 c -0.0981,-2.550982 -0.19474,-3.010372 -0.9375,-4.455091 -1.04872,-2.039807 -3.30991,-4.152381 -5.02792,-4.697453 -0.6929,-0.219838 -2.43318,-0.480036 -3.86729,-0.57822 l -2.60747,-0.178515 0.17816,1.151254 c 0.86337,5.578956 5.26532,10.512914 10.10368,11.324759 2.4707,0.414569 2.28159,0.639465 2.15834,-2.566734 z M 46.316736,93.857996 c 3.735162,-1.857947 7.256193,-7.098494 7.271435,-10.82248 l 0.0031,-0.767242 -2.93944,0.155068 c -3.483319,0.183761 -4.974685,0.793937 -7.220505,2.954191 -1.739525,1.67325 -2.247021,3.059244 -2.462235,6.724474 l -0.161062,2.743 1.961316,-0.09904 c 1.51139,-0.07632 2.325154,-0.280023 3.547351,-0.887969 z"
       id="path1"
       inkscape:export-filename="clock_icone1.svg"
       inkscape:export-xdpi="25"
       inkscape:export-ydpi="25" /></g></svg>
