<?xml version="1.0" encoding="UTF-8" standalone="no"?>
<!-- Created with Inkscape (http://www.inkscape.org/) -->

<svg
   width="144.32838mm"
   height="136.05095mm"
   viewBox="0 0 144.32838 136.05095"
   version="1.1"
   id="svg1"
   xml:space="preserve"
   xmlns="http://www.w3.org/2000/svg"
   xmlns:svg="http://www.w3.org/2000/svg"><defs
     id="defs1" /><g
     id="layer1"
     transform="translate(-39.719758,-67.337219)"><path
       style="fill:#6096ba;fill-opacity:1"
       d="m 92.452568,202.85293 c -1.236927,-0.28494 -3.022865,-0.90619 -3.96875,-1.38054 l -1.719792,-0.86247 -2.060426,-2.02088 -2.060427,-2.02088 -2.702073,-0.12216 -2.702073,-0.12216 -1.852083,-0.63255 -1.852084,-0.63254 -2.371253,-1.592 -2.371254,-1.592 -1.241344,-1.54086 c -1.420919,-1.76376 -2.769739,-4.17714 -3.237472,-5.79265 l -0.321139,-1.10918 -0.981348,-0.2039 c -1.582645,-0.32882 -4.716492,-1.94283 -6.144939,-3.16479 -3.515236,-3.00709 -5.670055,-6.26935 -6.660884,-10.08415 l -0.615157,-2.36843 v -1.93729 -1.9373 l -0.512184,-0.16256 c -0.676551,-0.21473 -3.185272,-2.94222 -4.536779,-4.9324 -2.406104,-3.54315 -3.983546,-8.04635 -4.512006,-12.88065 l -0.309343,-2.82984 0.439612,-3.38567 0.439612,-3.38566 0.928181,-2.87115 0.928181,-2.87115 1.345383,-2.07756 c 0.73996,-1.14266 1.70618,-2.45666 2.147154,-2.92001 l 0.801772,-0.84246 -0.152286,-0.39685 c -0.08376,-0.21827 -0.282752,-1.34972 -0.44221,-2.51434 l -0.289924,-2.11748 0.261309,-2.08398 c 0.14372,-1.14619 0.45592,-2.67173 0.693778,-3.39008 1.207784,-3.64765 4.183108,-8.20686 6.291335,-9.64048 l 0.972716,-0.66146 0.0018,-1.2335 c 0.0023,-1.58188 0.630017,-4.820742 1.19081,-6.144463 1.32902,-3.137078 5.109916,-7.387814 7.676251,-8.630156 1.379476,-0.667793 1.356904,-0.638542 2.311208,-2.995142 0.941595,-2.325218 1.842266,-3.613436 4.009878,-5.735279 2.146209,-2.100893 4.2832,-3.434328 6.680809,-4.168677 2.283796,-0.69949 5.295601,-1.189008 6.694186,-1.088027 l 1.075166,0.07763 1.51977,-1.487214 c 2.523177,-2.469124 5.476538,-3.987691 9.187907,-4.724262 1.945557,-0.386122 5.594014,-0.386769 7.545404,-0.0013 1.88279,0.371884 4.73572,1.743402 6.77618,3.257589 l 1.61681,1.199802 0.8687,1.340637 0.8687,1.340636 0.52033,-1.051669 c 0.97329,-1.967205 4.58928,-4.529544 7.87011,-5.576868 l 1.71979,-0.549002 3.04271,-0.132966 3.04271,-0.132967 1.81633,0.427631 c 0.99898,0.235197 2.87088,0.972285 4.15977,1.637973 l 2.34345,1.210342 1.806,1.672083 1.80601,1.672083 2.40351,0.01142 2.40352,0.01142 1.68487,0.565372 c 5.4804,1.838995 10.24882,6.263293 11.82396,10.970662 l 0.53119,1.5875 1.52816,0.901052 c 2.07577,1.22394 4.82247,4.033277 6.12668,6.266403 1.42248,2.435624 2.16435,4.716749 2.36028,7.257517 l 0.16037,2.07973 1.31819,1.07229 c 1.80123,1.46524 3.56705,3.72932 4.88628,6.26505 l 1.10459,2.12316 0.67311,2.59063 0.6731,2.59064 v 1.74105 c 0,0.95757 -0.14006,2.41913 -0.31124,3.24791 l -0.31123,1.50686 0.91599,1.07013 c 2.27141,2.65363 4.70681,8.63486 5.42305,13.31875 l 0.41861,2.73758 -0.13807,2.91041 -0.13808,2.91042 -0.68572,2.75016 c -1.34832,5.40758 -4.31172,10.3681 -7.753,12.97796 l -1.12448,0.8528 -0.001,1.896 c -0.003,4.36642 -2.13587,8.97196 -5.83946,12.61162 -2.02104,1.98615 -3.9328,3.19785 -6.61319,4.1915 l -1.89714,0.70329 -0.66449,1.85209 c -0.92161,2.56875 -2.02471,4.17605 -4.42692,6.45038 l -2.06226,1.95247 -1.88139,0.86109 c -3.47549,1.5907 -6.35424,2.13809 -8.62826,1.64065 l -0.92604,-0.20257 -0.74113,1.06008 c -1.57822,2.25741 -5.89306,4.84658 -9.48987,5.69452 -0.92139,0.21721 -2.51941,0.39669 -3.55115,0.39884 l -1.87591,0.004 -2.09284,-0.52553 c -1.15107,-0.28903 -3.10488,-1.02573 -4.34181,-1.6371 l -2.24896,-1.11158 -2.45045,-2.4507 -2.45045,-2.45071 -2.45013,2.43417 -2.45012,2.43416 -1.71401,0.99919 c -0.9427,0.54956 -2.48791,1.2518 -3.43379,1.56055 l -1.71979,0.56135 -2.778126,0.0846 -2.778125,0.0846 z m 6.764427,-5.57248 c 0.863475,-0.15771 2.301195,-0.63389 3.194955,-1.05818 l 1.625,-0.77142 1.4177,-1.53175 c 2.3888,-2.58096 3.66667,-5.61068 3.66667,-8.69334 v -1.20291 l -0.49244,-0.7023 c -0.27085,-0.38626 -0.64429,-1.17855 -0.82987,-1.76063 -0.49814,-1.56239 -1.43706,-3.35101 -3.50094,-6.66927 l -1.84423,-2.96509 -1.29784,-1.21398 c -0.71381,-0.66768 -2.04136,-1.56572 -2.950113,-1.99563 l -1.652278,-0.78166 -1.437819,-2.1e-4 -1.437818,-2e-4 -1.096208,0.53066 -1.096208,0.53067 -1.517954,1.71829 -1.517955,1.71829 h -1.020948 -1.020947 l -0.81405,-0.68498 -0.814051,-0.68497 0.0015,-0.70409 c 8.12e-4,-0.38725 0.129768,-1.16613 0.286569,-1.73086 l 0.285094,-1.02677 1.243459,-1.24346 c 1.537059,-1.53706 4.162384,-2.8593 6.457875,-3.2525 l 1.738301,-0.29776 1.806848,0.27968 c 2.35758,0.36492 5.555793,1.71169 7.443673,3.13455 1.55342,1.17078 4.07307,4.01757 4.86884,5.501 l 0.45193,0.84245 0.026,-1.5875 c 0.0143,-0.87312 0.013,-21.11375 -0.003,-44.97916 l -0.029,-43.391665 -0.25952,-1.159411 c -0.14274,-0.637676 -0.57753,-1.80887 -0.96621,-2.602654 l -0.70669,-1.443243 -1.40793,-1.286766 c -1.6955,-1.549592 -4.20429,-2.804516 -6.074705,-3.038639 l -1.373288,-0.171895 -2.066295,0.727016 c -5.231685,1.840745 -8.206503,3.755979 -11.142549,7.173747 l -1.99607,2.323568 -0.855398,1.855805 c -0.47047,1.020693 -1.001809,2.603981 -1.180755,3.518418 l -0.325357,1.662613 0.133294,2.337771 0.133294,2.33777 1.10762,2.404502 1.107621,2.404502 -0.184905,0.985631 -0.184904,0.98562 -0.661582,0.61314 -0.661582,0.61313 h -0.984017 -0.984017 l -0.705909,-0.55527 C 77.708148,101.1821 75.8554,96.240114 75.594789,92.893299 l -0.146648,-1.883288 0.320598,-2.192579 c 0.395413,-2.704246 1.351435,-5.410972 2.688535,-7.611883 l 1.016845,-1.673761 -0.58838,0.169338 c -0.323608,0.09314 -1.449199,0.569419 -2.501312,1.058406 l -1.912932,0.889068 -1.330521,1.244546 -1.33052,1.244546 -0.813996,1.653462 -0.813997,1.653462 -0.130538,1.681611 c -0.154481,1.990055 -0.539859,3.136819 -1.054149,3.136819 -0.204515,0 -1.341132,0.327187 -2.525816,0.727082 l -2.153969,0.727082 -1.270454,1.142247 -1.270454,1.142247 -0.867985,1.763128 -0.867985,1.763128 0.0023,2.12223 0.0023,2.12223 0.496061,1.32292 c 0.69383,1.85033 1.545253,2.89721 2.882969,3.54479 l 1.149063,0.55625 h 1.608847 1.608847 l 0.821159,0.93525 0.821159,0.93524 v 0.9433 0.94329 l -0.875844,0.87585 -0.875844,0.87584 -1.204522,0.18063 -1.204521,0.18063 -1.6609,-0.42551 c -3.401719,-0.87148 -5.301193,-2.05635 -6.661187,-4.15518 -0.459507,-0.70914 -0.904712,-1.28371 -0.989345,-1.27682 -0.08463,0.007 -0.67416,0.66278 -1.31006,1.45755 -1.305196,1.63128 -2.319944,3.92779 -2.744647,6.21152 l -0.287385,1.54533 0.310347,2.19956 0.310347,2.19956 0.674137,1.37965 c 0.370776,0.75881 1.188235,1.83037 1.816577,2.38125 l 1.142439,1.0016 2.009063,0.74103 2.009062,0.74103 0.537808,0.68371 c 0.295795,0.37605 0.537809,1.03885 0.537809,1.47291 v 0.7892 l -1.027206,1.0272 -1.027206,1.02721 h -0.965515 c -2.257297,0 -5.557154,-1.62865 -7.283391,-3.59472 l -0.8604,-0.97994 -0.637556,0.76597 c -1.076993,1.29393 -2.403345,4.34469 -3.036233,6.98369 l -0.602802,2.51354 -0.0082,3.57188 -0.0082,3.57187 0.57924,2.31323 c 0.318582,1.27228 0.893555,2.93915 1.277719,3.70417 0.982693,1.95691 2.877557,4.56326 3.789862,5.21287 l 0.77128,0.5492 0.293691,-0.88989 c 0.16153,-0.48944 0.594603,-1.17258 0.962385,-1.5181 l 0.668695,-0.6282 h 1.028503 1.028503 l 0.676374,0.63542 0.676373,0.63542 v 0.66428 c 0,0.36536 -0.431263,1.49765 -0.958363,2.5162 l -0.958364,1.85191 -0.136573,2.1891 -0.136574,2.1891 0.323723,1.66473 c 0.178047,0.9156 0.689493,2.43536 1.136546,3.37724 l 0.812823,1.71251 1.347453,1.34269 c 1.372918,1.36806 3.791827,2.77321 4.772841,2.77254 l 0.543363,-3.6e-4 0.482408,-1.65328 c 0.763855,-2.61783 2.594109,-5.13154 4.1478,-5.69667 l 0.661458,-0.24059 0.837959,0.22564 c 0.460877,0.1241 1.145486,0.59112 1.521354,1.03781 l 0.683395,0.81217 v 0.78479 0.78478 l -1.185795,1.26771 c -0.652188,0.69724 -1.366563,1.70035 -1.5875,2.22913 l -0.401704,0.96141 v 1.84545 1.84544 l 0.672697,1.81484 0.672698,1.81484 1.196195,1.52408 c 1.760754,2.24338 4.840729,3.98276 7.415401,4.18775 l 1.023216,0.0815 -0.07433,-0.66146 c -0.04088,-0.3638 -0.142415,-1.67349 -0.225636,-2.91041 l -0.151309,-2.24896 0.560502,-0.70845 c 0.308276,-0.38965 0.971978,-0.84425 1.474892,-1.01023 l 0.91439,-0.30177 0.732708,0.35117 c 1.007059,0.48268 1.413564,1.47089 1.647625,4.00537 l 0.199646,2.16183 0.859508,1.69625 c 2.521402,4.97603 7.238419,7.16281 13.129552,6.08678 z M 77.52713,160.24066 c -0.376738,-0.44773 -0.696514,-1.13234 -0.710614,-1.52136 -0.109569,-3.02302 0.367494,-5.2665 1.645374,-7.73769 l 1.035935,-2.0033 1.371041,-1.40015 c 2.953288,-3.01597 6.256913,-4.62692 10.166262,-4.95738 l 1.915318,-0.16191 1.66929,0.32573 c 0.918109,0.17914 2.478289,0.74935 3.467065,1.26712 l 1.797775,0.94139 1.072264,1.21778 1.07227,1.21778 -0.13637,1.01819 c -0.075,0.56001 -0.39186,1.29015 -0.70412,1.62253 l -0.56775,0.60434 -1.023528,0.16367 c -1.317373,0.21065 -2.035398,-0.0774 -3.823668,-1.53397 l -1.457529,-1.18717 -0.955996,-0.17935 c -0.525798,-0.0986 -1.570181,-0.10719 -2.320851,-0.019 l -1.364855,0.16034 -1.865528,0.92038 c -2.211381,1.09103 -3.763513,2.57374 -4.703223,4.49288 l -0.684338,1.3976 -0.180027,1.82603 c -0.178973,1.81533 -0.594901,2.99135 -1.371047,3.87655 l -0.405976,0.46302 h -1.126098 -1.126098 z m -15.633936,-6.769 c -0.727604,-0.22135 -2.276786,-1.03516 -3.442628,-1.80847 l -2.119711,-1.40602 -1.108178,-1.49578 c -0.609498,-0.82267 -1.362906,-2.17346 -1.67424,-3.00175 l -0.566063,-1.50597 0.139595,-1.05834 0.139595,-1.05833 0.81426,-0.7276 0.814261,-0.72761 h 1.018079 1.01808 l 0.652043,0.65205 c 0.358624,0.35862 0.978841,1.48499 1.37826,2.50304 l 0.726216,1.85101 0.91035,0.79929 c 1.373286,1.20576 2.168725,1.51472 4.34279,1.68675 l 1.984374,0.15703 0.727605,0.8098 0.727604,0.8098 v 1.01552 1.01553 l -0.651323,0.70278 c -0.358227,0.38654 -0.96129,0.82064 -1.340141,0.96468 -0.976104,0.37112 -2.943152,0.29341 -4.490828,-0.17741 z m 15.385649,-13.59657 c -0.705705,-0.11841 -1.955861,-0.54327 -2.778125,-0.94412 l -1.495024,-0.72883 -1.455209,-1.4756 c -1.831216,-1.85686 -3.030859,-3.89221 -3.594734,-6.09891 l -0.439455,-1.71979 0.135747,-2.18305 0.135747,-2.18305 0.934135,-1.96702 c 1.237742,-2.60633 2.065271,-3.78625 3.391535,-4.83576 l 1.098995,-0.86967 h 0.962227 c 1.175344,0 2.0808,0.59624 2.530825,1.66654 l 0.33843,0.80488 -0.22471,0.78352 c -0.12359,0.43093 -0.931048,1.51909 -1.794353,2.41813 l -1.569643,1.63462 -0.289439,1.04251 c -0.159191,0.57338 -0.290009,1.63782 -0.290706,2.36543 l -0.0013,1.32292 0.76031,1.5875 c 0.864705,1.80547 1.842372,2.831 3.26567,3.42554 l 0.983689,0.41091 h 1.969353 1.969353 l 0.684978,0.81405 0.684979,0.81405 v 1.01768 1.01769 l -0.804686,0.80468 c -1.234106,1.23411 -2.532615,1.50739 -5.108623,1.07515 z m 19.539349,-10.3973 c -2.96831,-0.98301 -5.9392,-3.15364 -7.707012,-5.63101 l -1.23507,-1.73079 -0.773317,-2.24355 -0.773316,-2.24354 -0.01509,-2.8272 -0.01509,-2.8272 0.555385,-1.72656 0.555384,-1.72657 0.922084,-0.89371 0.922083,-0.89372 0.841774,0.0239 0.841774,0.0239 0.889683,0.86232 0.889683,0.86231 -0.0058,0.94029 c -0.0032,0.51716 -0.265346,1.47606 -0.582557,2.13091 l -0.576746,1.19062 0.02538,2.11667 0.02538,2.11667 0.56617,1.49457 0.566169,1.49457 1.365252,1.38696 1.365252,1.38695 1.470029,0.65915 1.470029,0.65915 2.416655,-0.0311 2.41665,-0.0311 0.68582,0.53946 0.68582,0.53947 0.27527,1.02225 0.27526,1.02226 -0.31431,0.68985 c -0.17288,0.37941 -0.73593,0.95042 -1.25124,1.2689 l -0.93692,0.57904 -2.39109,0.0731 -2.391081,0.0731 z m 2.081206,-27.80276 c -2.65983,-0.83215 -5.969541,-3.456128 -7.392989,-5.861251 -0.854892,-1.444467 -1.616012,-3.715042 -1.836277,-5.47799 l -0.18014,-1.441792 0.321267,-1.547538 0.321268,-1.547539 0.868979,-0.868978 0.868978,-0.868979 h 1.102186 c 1.408722,0 1.970962,0.310511 2.388807,1.319277 l 0.335651,0.810333 -0.334184,1.574747 -0.334184,1.574746 0.174121,1.088894 c 0.326523,2.041963 1.621235,3.83057 3.714831,5.131932 l 0.776603,0.48273 2.096355,0.211335 2.09636,0.211335 0.52756,0.47744 c 0.72634,0.657325 1.26714,1.770682 1.26714,2.608674 v 0.701054 l -0.89958,0.89959 -0.89958,0.89958 -1.94469,-0.0177 c -1.06958,-0.01 -2.436895,-0.17169 -3.038482,-0.3599 z m 33.392752,94.73457 c 1.1124,-0.52828 2.46207,-1.30861 2.99926,-1.73407 1.86755,-1.47913 2.92623,-4.447 2.93248,-8.22082 l 0.002,-1.45521 0.46261,-0.92321 0.46261,-0.9232 0.67888,-0.23521 0.67887,-0.23521 1.24967,0.55279 1.24967,0.55278 0.5546,1.25376 0.55459,1.25375 -0.15232,2.3511 -0.15232,2.35111 1.37335,-0.18104 c 1.78629,-0.23548 3.12012,-0.83919 5.09988,-2.30829 l 1.60987,-1.19462 1.0951,-1.63993 c 0.60231,-0.90196 1.21665,-2.07757 1.36522,-2.61246 0.39089,-1.40737 0.33424,-3.71323 -0.12961,-5.27517 l -0.40268,-1.35597 -1.31711,-1.44113 -1.31712,-1.44113 v -0.99 -0.99001 l 0.56267,-0.91041 c 0.66376,-1.07399 1.4953,-1.45244 2.67356,-1.21678 l 0.85521,0.17104 1.19543,1.23298 c 1.29244,1.33306 2.75706,4.02922 3.0538,5.62165 l 0.18489,0.99218 h 0.50852 c 0.67383,0 2.85017,-1.11593 3.90134,-2.00043 1.08527,-0.91319 3.04682,-3.6666 3.78358,-5.31098 l 0.57688,-1.28754 0.006,-2.67237 0.006,-2.67236 -1.24574,-2.57674 c -0.68516,-1.41721 -1.24575,-2.87949 -1.24575,-3.24952 v -0.67278 l 0.94488,-0.89114 0.94488,-0.89113 h 0.64186 0.64186 l 1.01024,0.91269 c 0.55563,0.50198 1.2379,1.33542 1.51614,1.85208 0.27824,0.51667 0.58861,0.93939 0.68972,0.93939 0.35958,0 2.3482,-2.53672 3.11124,-3.96875 3.34374,-6.27531 3.82646,-13.18996 1.39957,-20.04807 -0.68687,-1.941 -2.59596,-5.34411 -3.00105,-5.34961 -0.0938,-0.001 -0.56562,0.36682 -1.0486,0.81799 -1.15773,1.08148 -4.59728,3.08682 -5.90068,3.44024 -1.37861,0.37381 -2.65707,0.10041 -3.59604,-0.769 l -0.7705,-0.71342 -0.16753,-0.9615 -0.16753,-0.9615 0.75129,-0.82031 0.75129,-0.8203 1.55411,-0.39506 c 3.83919,-0.97594 5.8446,-3.37421 6.53334,-7.81323 l 0.29407,-1.89534 -0.30689,-1.7623 -0.30689,-1.7623 -0.95336,-1.81424 c -0.52434,-0.99784 -1.43865,-2.34327 -2.03178,-2.98985 l -1.07843,-1.1756 -1.28213,1.62023 -1.28214,1.62023 -1.86253,0.8926 c -1.02439,0.49092 -2.48627,1.03218 -3.24862,1.20278 l -1.38608,0.31019 -1.49716,-0.18705 -1.49715,-0.18706 -0.71897,-0.61843 -0.71897,-0.61843 v -1.33982 -1.33981 l 0.70138,-0.70138 0.70138,-0.70138 1.82624,-0.0358 1.82623,-0.0358 1.27746,-0.65785 1.27745,-0.65785 0.81529,-1.44351 0.81529,-1.44351 0.10751,-2.45814 0.10751,-2.458133 -0.69328,-1.39002 c -1.60262,-3.213246 -3.47437,-5.025392 -6.2106,-6.012854 -0.82144,-0.296443 -1.66565,-0.636629 -1.87602,-0.755967 l -0.3825,-0.216979 -0.31539,-1.871815 -0.31539,-1.871816 -0.86625,-1.625262 -0.86626,-1.625262 -1.55298,-1.437787 c -1.60356,-1.484613 -3.04418,-2.435995 -4.79708,-3.16799 l -1.01168,-0.422465 0.92975,1.665339 c 0.51135,0.915936 1.30668,2.792206 1.76738,4.169487 l 0.83763,2.504148 0.13995,2.539731 0.13995,2.539732 -0.30911,1.835287 c -0.17,1.009408 -0.68399,2.778522 -1.14219,3.931366 l -0.83309,2.09608 -1.13197,1.1814 -1.13198,1.18139 -1.00273,-0.15943 -1.00273,-0.15943 -0.72761,-0.80712 -0.7276,-0.80711 v -0.79712 c 0,-0.43842 0.35848,-1.507279 0.79664,-2.375249 1.089,-2.157308 1.58461,-4.226608 1.58461,-6.616201 v -2.012826 l -0.50048,-1.906291 c -0.27527,-1.04846 -0.90034,-2.575708 -1.38906,-3.393886 -1.12236,-1.878955 -5.1687,-6.003878 -7.19432,-7.334024 -2.18923,-1.437589 -7.44665,-3.866469 -8.36913,-3.866469 -2.51601,0 -5.49616,1.239389 -7.28752,3.030747 l -1.14628,1.146287 -1.07952,2.230285 -1.07952,2.230285 0.005,45.621302 0.005,45.6213 0.73017,-1.32292 c 1.09667,-1.98694 2.27601,-3.62405 3.56928,-4.95473 l 1.1614,-1.19499 1.72313,-0.82238 c 0.94772,-0.4523 2.54461,-1.01462 3.54864,-1.2496 l 1.8255,-0.42723 2.39607,0.10111 2.39607,0.10112 1.44844,0.70866 c 1.70805,0.83567 3.54808,2.34733 4.05837,3.33412 0.3621,0.70023 0.49788,1.62436 0.44471,3.02688 l -0.028,0.73963 -0.64943,0.64944 -0.64943,0.64943 h -0.97924 -0.97924 l -0.82722,-0.63095 c -0.45497,-0.34703 -1.17249,-1.17718 -1.59448,-1.84479 l -0.76726,-1.21383 -0.92026,-0.43669 -0.92027,-0.4367 -1.74356,0.12521 -1.74357,0.12521 -1.47385,0.6978 -1.47385,0.6978 -2.14957,1.997 c -1.18226,1.09834 -2.62483,2.72436 -3.2057,3.61336 l -1.05614,1.61637 -0.17241,1.08625 c -0.0948,0.59744 -0.47705,2.21734 -0.8494,3.59979 -0.37234,1.38245 -0.72847,3.37756 -0.7914,4.43359 l -0.1144,1.92005 0.55158,1.65751 c 1.04841,3.15046 3.26588,5.77828 5.96163,7.06484 2.1274,1.01532 3.76737,1.31993 6.55025,1.21665 l 2.30591,-0.0856 z m 11.1655,-35.76732 c -0.95288,-0.51711 -1.24605,-1.12059 -1.81972,-3.74571 -0.59586,-2.72673 -1.15859,-3.99902 -2.66627,-6.02832 l -1.17945,-1.5875 -1.41924,-0.77044 -1.41923,-0.77045 -1.89176,-0.1214 -1.89175,-0.12141 -1.23507,0.54633 c -0.6793,0.30049 -1.90304,1.17807 -2.71945,1.95019 l -1.48436,1.40385 h -1.28755 -1.28754 l -0.698,-0.698 -0.698,-0.698 v -1.37755 -1.37754 l 1.15501,-1.18508 1.155,-1.18508 2.11667,-1.02173 c 1.16417,-0.56195 2.89057,-1.15982 3.83646,-1.32861 l 1.71979,-0.3069 1.5875,0.17755 c 3.63627,0.40668 6.37868,1.86729 9.67524,5.15308 l 2.00233,1.99577 0.83272,2.11667 c 1.16382,2.95825 1.45905,4.36217 1.33314,6.33959 l -0.10909,1.71311 -0.62944,0.67 -0.62943,0.67001 -0.81378,-0.0106 c -0.44757,-0.006 -1.1382,-0.18666 -1.53473,-0.40184 z m 14.347,-6.91818 c -1.94294,-0.71025 -2.30693,-3.09069 -0.73001,-4.77408 l 0.55767,-0.59531 1.07835,-0.006 c 0.5931,-0.004 1.61195,-0.12941 2.26412,-0.27968 l 1.18576,-0.27322 1.35633,-1.0464 1.35632,-1.04639 0.58815,-1.98118 0.58815,-1.98118 0.56666,-0.39691 c 0.8176,-0.57267 2.08675,-0.48832 3.12177,0.20746 l 0.89902,0.60437 0.079,1.50146 0.079,1.50146 -0.70395,1.48802 c -0.8888,1.87877 -3.38004,4.56025 -5.11301,5.50345 -2.67868,1.45792 -5.68647,2.11815 -7.17338,1.5746 z m -15.51033,-14.48083 c -1.58619,-0.69035 -2.11188,-2.26517 -1.28797,-3.85844 0.55172,-1.06692 1.14584,-1.31762 3.12255,-1.31762 h 1.70487 l 0.9469,-0.39564 c 1.19408,-0.49892 1.8977,-1.24165 2.74265,-2.8951 l 0.66758,-1.30636 0.13518,-1.49078 0.13518,-1.49078 -0.42156,-1.43619 -0.42156,-1.43619 -1.19841,-1.45333 -1.19842,-1.45333 v -1.27068 -1.27067 l 0.64944,-0.64943 0.64943,-0.64944 h 0.69964 c 2.25093,0 4.86658,2.91596 6.22253,6.93697 l 0.51021,1.51301 v 1.97906 1.97906 l -0.65864,2.06418 -0.65865,2.06418 -1.36193,1.80614 c -1.55759,2.06563 -2.54092,2.7914 -5.06588,3.73903 l -1.79198,0.67254 -1.6476,-0.0104 c -0.90618,-0.006 -2.01928,-0.17212 -2.47356,-0.36983 z m -20.77229,-9.98475 c -0.52841,-0.14085 -1.29961,-0.60979 -1.71378,-1.04209 l -0.75303,-0.786 v -1.04723 -1.04724 l 0.71638,-0.71638 0.71637,-0.71638 2.7172,-0.15356 2.71719,-0.15356 1.40728,-0.76952 c 2.4545,-1.34217 4.04365,-3.7701 4.55798,-6.96378 l 0.2524,-1.56731 -0.24763,-1.29277 c -0.1362,-0.71103 -0.43384,-1.73544 -0.66144,-2.27647 -0.22759,-0.54103 -0.4138,-1.35386 -0.4138,-1.80629 v -0.8226 l 0.7734,-0.7734 0.77339,-0.77339 h 1.14754 1.14753 l 0.72249,0.66992 c 0.98832,0.91642 1.49145,1.97096 1.93194,4.04924 0.772,3.64242 0.33709,6.58493 -1.49455,10.11178 l -1.03799,1.99865 -1.78344,1.86811 -1.78344,1.86811 -1.65181,0.83248 c -2.93535,1.47934 -5.70877,1.93111 -8.04018,1.30968 z m -1.61229,-27.88291 c -0.91174,-0.49478 -1.26342,-1.15104 -1.26342,-2.357604 0,-1.821257 1.22293,-2.783263 3.54521,-2.788795 l 1.08499,-0.0026 1.32485,-0.616948 c 0.72866,-0.339321 1.70775,-1.053063 2.17576,-1.586094 l 0.85092,-0.969146 0.44372,-1.520175 0.44373,-1.520175 -0.4389,-1.719792 c -0.24139,-0.945885 -0.43789,-1.977098 -0.43667,-2.291584 l 0.002,-0.571793 0.84787,-0.71344 0.84788,-0.71344 1.2885,0.123809 1.2885,0.123808 0.7079,0.525472 c 1.05725,0.784802 1.36155,1.600438 1.36154,3.64946 -2e-5,3.676787 -1.26037,7.095768 -3.53314,9.584451 -1.46677,1.606115 -2.82844,2.480756 -5.05443,3.246616 l -1.54163,0.5304 -1.61222,-0.0106 -1.61223,-0.0106 z"
       id="path1" /></g></svg>
