<?xml version="1.0" encoding="UTF-8" standalone="no"?>
<!-- Created with Inkscape (http://www.inkscape.org/) -->

<svg
   width="210mm"
   height="297mm"
   viewBox="0 0 210 297"
   version="1.1"
   id="svg1"
   xmlns="http://www.w3.org/2000/svg"
   xmlns:svg="http://www.w3.org/2000/svg">
  <defs
     id="defs1" />
  <g
     id="layer1">
    <g
       id="layer1-0"
       transform="translate(0.98183696,10.647027)">
      <path
         style="fill:#6096ba;fill-opacity:1"
         d="m 98.232942,203.67815 -0.61002,-0.49397 -0.0146,-10.65412 -0.0146,-10.65413 -1.98437,-1.06262 c -1.09141,-0.58444 -3.71079,-1.80676 -5.82084,-2.71627 -3.39511,-1.46341 -7.15051,-3.13039 -10.84791,-4.81527 -3.73607,-1.7025 -6.81528,-3.05154 -9.39271,-4.11506 -1.60073,-0.6605 -4.60729,-1.92465 -6.68125,-2.80921 -2.07396,-0.88457 -3.83013,-1.6083 -3.9026,-1.6083 -0.0725,0 -0.13178,0.19344 -0.13178,0.42988 0,0.62414 -2.06017,6.15454 -2.69816,7.24303 -0.29852,0.50932 -0.93231,1.99761 -1.40842,3.30729 -1.50584,4.14228 -2.80302,7.13251 -3.24247,7.47448 -0.71349,0.55523 -2.06088,0.39339 -2.9494,-0.35425 -1.21578,-1.02302 -1.09007,-1.86323 0.87484,-5.84692 0.92889,-1.88324 2.34957,-5.20234 3.15707,-7.37577 2.3219,-6.24957 3.56167,-9.21351 4.51847,-10.80243 0.48879,-0.81171 1.3313,-2.69798 1.87226,-4.19172 0.80668,-2.22747 1.00833,-3.19171 1.12127,-5.36172 0.16836,-3.23503 -0.35144,-6.52175 -1.40766,-8.90066 -0.68992,-1.55389 -5.93344,-10.88407 -6.96779,-12.3983 -0.82904,-1.21366 -3.90258,-6.72737 -4.58586,-8.22669 -1.3483,-2.95858 -1.47136,-3.79707 -1.65554,-11.28027 -0.10414,-4.23113 -0.0464,-10.280019 0.14333,-15.021159 0.17472,-4.36562 0.40358,-11.092656 0.50856,-14.948958 0.17449,-6.409222 0.24198,-7.13645 0.78573,-8.466666 0.74922,-1.832862 1.60726,-2.737522 3.45905,-3.646978 1.26458,-0.621066 1.7866,-0.718316 3.84452,-0.716211 2.08793,0.0021 2.55346,0.09287 3.77934,0.73664 0.76896,0.403813 1.86252,1.198626 2.43015,1.766251 l 1.03205,1.032047 1.80318,-1.906877 c 0.99176,-1.048782 2.75569,-3.024948 3.91986,-4.391479 1.16417,-1.366532 2.86171,-3.328409 3.77232,-4.359727 0.91061,-1.031318 3.18558,-3.661061 5.05548,-5.843874 4.10464,-4.791522 5.44949,-6.060612 7.33914,-6.925725 1.92558,-0.881562 4.48891,-0.924137 6.34002,-0.105304 1.56012,0.690116 2.33302,1.376431 3.18929,2.832013 l 0.64276,1.092649 0.9755,-0.497337 c 1.31214,-0.668967 4.29407,-0.670147 5.764278,-0.0023 1.294,0.587823 2.54665,1.80388 3.45528,3.354342 1.17769,2.009572 1.15853,5.283017 -0.0493,8.430661 -0.10344,0.269554 0.14288,0.516217 0.78231,0.783385 0.51331,0.214474 1.46817,0.882994 2.12192,1.485601 l 1.18864,1.095649 1.09143,-1.059195 c 0.60029,-0.582557 1.60143,-1.306084 2.22478,-1.607839 l 1.13335,-0.548645 -0.51448,-1.518153 c -0.68354,-2.01707 -0.55327,-5.507263 0.26449,-7.086296 0.86277,-1.665946 2.70157,-3.199643 4.44315,-3.705934 1.65513,-0.481159 3.93507,-0.350813 5.18692,0.29654 0.67631,0.349736 0.7283,0.319227 1.72006,-1.009409 1.27863,-1.712938 2.37588,-2.460773 4.2141,-2.87215 2.39463,-0.535894 5.6879,0.482794 7.93274,2.453783 0.52648,0.462256 2.51543,2.75443 4.4199,5.093722 4.70605,5.780527 10.2807,12.318032 12.39867,14.540147 l 1.74898,1.834988 0.98645,-1.091882 c 0.54254,-0.600535 1.6605,-1.418254 2.48435,-1.817152 1.26405,-0.612043 1.849,-0.726902 3.74686,-0.735724 1.95097,-0.0091 2.45309,0.08978 3.78958,0.746035 1.58524,0.778399 2.77992,2.077532 3.53836,3.84772 0.72218,1.68555 0.98658,10.152304 1.20299,38.522871 l 0.0585,7.67292 -0.87138,2.11666 c -0.47926,1.16417 -1.39986,3.0201 -2.04577,4.1243 -0.64592,1.10419 -1.17439,2.08507 -1.17439,2.17973 0,0.0947 -0.63788,1.21528 -1.4175,2.49029 -1.27003,2.07701 -1.82747,3.03201 -4.1061,7.0345 -0.34584,0.60748 -1.08227,1.87842 -1.6365,2.82431 -0.55423,0.94588 -1.39584,2.67229 -1.87025,3.83645 -0.85028,2.08656 -0.86275,2.17878 -0.87704,6.4823 -0.0108,3.25688 0.10731,4.93679 0.4651,6.61458 0.51108,2.39665 1.48637,4.81883 2.29017,5.68776 0.26962,0.29147 0.62459,1.03623 0.78882,1.65502 0.57954,2.18361 3.26201,8.7229 5.56214,13.5593 1.28034,2.69214 2.40634,5.15394 2.50223,5.47068 0.40492,1.33756 -1.30417,3.52515 -2.75408,3.52515 -0.94864,0 -1.44163,-0.59365 -2.22806,-2.68299 -0.35917,-0.95423 -1.32302,-3.13397 -2.14189,-4.84388 -0.81887,-1.7099 -1.82832,-4.01984 -2.24321,-5.1332 -0.41489,-1.11337 -1.07538,-2.73868 -1.46775,-3.6118 -0.39237,-0.87312 -0.8124,-1.84453 -0.9334,-2.15868 -0.21365,-0.55474 -0.39754,-0.49685 -6.38727,2.01074 -3.39201,1.42006 -7.59604,3.24202 -9.34229,4.04881 -5.98954,2.76722 -6.88862,3.17966 -11.37708,5.21905 -2.47385,1.12403 -6.14685,2.79563 -8.16221,3.71467 l -3.66428,1.67099 0.17351,4.38887 c 0.20345,5.14605 0.61459,12.38316 0.84484,14.87131 0.14409,1.55704 0.0995,1.81368 -0.40188,2.3151 -0.82005,0.82005 -2.91809,0.78943 -3.90208,-0.057 -0.69337,-0.59641 -0.72952,-0.75548 -0.91691,-4.03489 -0.1073,-1.87771 -0.2613,-6.94486 -0.34223,-11.26035 l -0.14714,-7.84634 0.78027,-0.98184 0.78026,-0.98184 -0.13292,-10.75098 c -0.0731,-5.91305 -0.18621,-11.67071 -0.25134,-12.79481 -0.13,-2.24402 -0.42778,-2.98249 -2.45661,-6.09239 -0.6882,-1.0549 -1.60846,-2.60232 -2.04502,-3.43871 -0.43656,-0.83638 -0.8551,-1.52098 -0.93008,-1.52133 -0.075,-3.4e-4 -0.33949,0.56492 -0.58779,1.25614 -0.24829,0.69123 -1.25851,2.37125 -2.24491,3.7334 -0.98641,1.36214 -1.98395,2.76379 -2.21677,3.11477 -0.54785,0.82593 -0.75944,5.61308 -0.78595,17.78217 -0.0181,8.29076 0.0206,9.13074 0.44214,9.5965 0.43188,0.47721 0.44149,0.95357 0.14763,7.3181 -0.17287,3.74422 -0.31257,8.91639 -0.31044,11.49371 0.004,4.40028 -0.0295,4.71715 -0.54361,5.19611 -0.49398,0.46021 -1.61311,0.83347 -2.498978,0.83347 -0.18397,0 -0.609,-0.22228 -0.94451,-0.49396 z m 26.215968,-30.21502 c 1.96453,-0.83574 6.31031,-2.85504 9.65729,-4.48734 5.84092,-2.84858 12.94536,-5.9046 16.99948,-7.31245 1.05502,-0.36637 1.91817,-0.74467 1.91809,-0.84066 -7e-5,-0.096 -0.24387,-0.81581 -0.54177,-1.5996 -1.16515,-3.06558 -1.57106,-5.53452 -1.57091,-9.55513 3e-4,-7.73805 0.78044,-10.01604 7.24893,-21.16667 3.47134,-5.98402 5.84595,-10.595 6.3938,-12.41537 0.28731,-0.95465 0.33176,-3.75672 0.2268,-14.2959 -0.0718,-7.209689 -0.19879,-14.686099 -0.28219,-16.614248 l -0.15165,-3.505729 h -1.17202 c -2.99932,0 -4.85624,-2.225754 -4.85624,-5.820833 0,-1.762313 0.41369,-2.948281 1.45121,-4.160392 0.5099,-0.595706 0.92709,-1.153472 0.92709,-1.23948 0,-0.433772 -1.23869,-0.05973 -2.28095,0.688765 -3.91431,2.81104 -5.06912,9.613003 -3.00093,17.675688 0.80101,3.12268 0.84058,3.4993 0.70887,6.74688 -0.15803,3.89654 -0.85603,6.603709 -2.27129,8.809219 -1.20756,1.88181 -1.70887,2.25785 -5.19448,3.89645 -1.74612,0.82086 -4.35802,2.04836 -5.80423,2.72778 -3.97289,1.86642 -5.73917,3.38628 -9.36052,8.0546 -3.9363,5.07434 -6.49665,10.40941 -7.21381,15.03157 -0.33964,2.18904 -0.19458,3.98563 0.55361,6.85642 0.73834,2.83303 0.69302,3.51678 -0.28781,4.3421 -1.73402,1.45907 -3.04821,0.60861 -4.25659,-2.7546 -0.55839,-1.55415 -0.61669,-2.15301 -0.60523,-6.21771 0.0123,-4.36984 0.0372,-4.56915 0.87302,-6.99953 1.00258,-2.91522 4.10966,-8.72555 5.72939,-10.71414 1.15656,-1.41994 1.85222,-2.52696 1.58798,-2.52696 -0.0825,0 -1.66423,0.87178 -3.51504,1.93728 -3.51507,2.02361 -6.22096,3.45959 -6.99567,3.7125 -1.28406,0.4192 -2.8145,-1.0037 -2.48625,-2.31155 0.20654,-0.82293 0.51322,-1.04584 4.6616,-3.38835 5.79852,-3.2743 24.17097,-11.85612 25.38224,-11.85612 0.11431,0 0.74526,-0.47306 1.40211,-1.05124 1.74097,-1.53246 2.84482,-4.521139 2.84751,-7.709619 l 10e-4,-1.74939 -2.57968,0.62222 c -1.41883,0.34223 -4.1275,0.99524 -6.01927,1.45114 -7.98162,1.9235 -15.20763,4.777749 -20.37292,8.047239 -2.83799,1.79637 -4.06927,2.0832 -5.03758,1.17352 -1.04579,-0.98246 -0.87236,-1.95972 0.60582,-3.41369 l 1.25677,-1.23619 -0.17695,-3.557099 c -0.0973,-1.95641 -0.3056,-4.56913 -0.46284,-5.80606 -0.15725,-1.23693 -0.35716,-6.416147 -0.44425,-11.509376 -0.14414,-8.429179 -0.20464,-9.359271 -0.67401,-10.361705 -0.74788,-1.59725 -2.52818,-3.52892 -3.25239,-3.52892 -0.74732,0 -2.17092,0.95009 -2.90273,1.937244 -0.53189,0.717475 -0.56127,1.16674 -0.75263,11.509375 -0.10952,5.919515 -0.16905,21.240251 -0.13229,34.046091 l 0.0668,23.28333 0.96384,2.56699 c 1.2342,3.28704 2.97937,6.48057 5.05877,9.25716 l 1.64665,2.19876 0.17658,3.04271 c 0.0971,1.67349 0.18724,6.3284 0.20027,10.34425 0.013,4.01585 0.10048,8.38352 0.19435,9.70594 l 0.17067,2.4044 1.0861,-0.42202 c 0.59735,-0.23211 2.69344,-1.1058 4.65797,-1.94155 z m -27.404028,-9.70612 c 0.0963,-6.51206 0.22807,-12.09363 0.29284,-12.4035 0.0648,-0.30986 0.63286,-1.1433 1.26244,-1.85208 3.075938,-3.46292 5.539308,-7.91882 6.161538,-11.1454 0.33811,-1.75325 0.39348,-6.87324 0.38302,-35.41637 -0.009,-24.114309 -0.0953,-33.615477 -0.3119,-34.263536 -0.41792,-1.250644 -1.47905,-2.309255 -2.67344,-2.667102 -1.0088,-0.302245 -1.01702,-0.298552 -2.219488,0.998093 -0.66382,0.715803 -1.48935,1.899412 -1.83451,2.630241 -0.60734,1.285979 -0.63259,1.601313 -0.7838,9.789583 -0.0859,4.653441 -0.20362,8.877522 -0.26151,9.386842 -0.0579,0.50933 -0.18852,3.21654 -0.29027,6.01604 l -0.185,5.09 1.39609,1.476159 c 1.2901,1.36409 1.38425,1.55015 1.24011,2.45063 -0.20562,1.28453 -1.05214,1.97935 -2.13379,1.7514 -0.44903,-0.0946 -2.00704,-0.8246 -3.46225,-1.62217 -6.72117,-3.68372 -9.83237,-4.953459 -19.31458,-7.882659 -2.18282,-0.6743 -4.86172,-1.52249 -5.95313,-1.88486 -4.92466,-1.6351 -4.78743,-1.69071 -4.13029,1.6734 0.75797,3.88037 2.15378,6.242379 4.49731,7.610449 0.5985,0.34939 2.45741,1.22433 4.1309,1.94431 1.67349,0.71998 4.59052,2.05173 6.48229,2.95945 1.89177,0.90772 4.45161,2.09923 5.68854,2.6478 1.23693,0.54856 3.88139,1.88318 5.87659,2.96582 1.9952,1.08263 4.36826,2.25609 5.27347,2.60768 1.71684,0.66684 3.66661,2.24045 3.66661,2.95924 0,0.22965 -0.30824,0.78387 -0.68498,1.23159 -0.98091,1.16575 -1.9545,1.08315 -4.79379,-0.40668 -2.12182,-1.11337 -6.38014,-3.54286 -8.01498,-4.57277 -0.58985,-0.37159 -0.5704,-0.31102 0.17964,0.55953 1.86002,2.15886 5.6701,9.41771 6.55796,12.49402 1.74292,6.03895 1.05938,14.62272 -1.38656,17.41235 -0.52681,0.60083 -0.96584,0.58374 -2.36157,-0.0919 -1.74436,-0.84443 -1.81966,-1.19087 -0.81247,-3.738 0.84143,-2.12796 0.86526,-2.29694 0.84983,-6.02581 -0.0151,-3.65248 -0.0574,-3.95065 -0.88183,-6.21771 -2.32222,-6.38588 -7.63326,-14.20473 -11.68434,-17.20158 -0.66273,-0.49026 -2.68679,-1.6214 -4.49792,-2.51365 -1.81112,-0.89224 -4.28302,-2.11328 -5.49312,-2.71342 -5.33919,-2.64794 -7.67982,-7.16138 -7.37235,-14.216139 0.10635,-2.44011 0.29448,-3.53791 0.94996,-5.54319 0.68565,-2.09758 0.81735,-2.914502 0.81735,-5.069953 0,-5.064326 -1.32176,-9.038365 -3.79478,-11.409474 -0.72477,-0.694899 -1.36211,-1.219095 -1.41633,-1.164879 -0.0542,0.05421 0.20314,1.139713 0.5719,2.412217 0.74525,2.571711 0.79774,3.226106 0.38248,4.767989 -0.66945,2.485674 -2.69133,4.101042 -5.13309,4.101042 h -1.19351 l -0.0202,2.315104 c -0.0111,1.273307 -0.0653,2.553224 -0.12045,2.844274 -0.0551,0.29104 -0.11775,6.54399 -0.13918,13.895439 l -0.039,13.36627 0.70612,2.11185 c 0.85472,2.5563 1.42247,3.61512 6.80728,12.69519 3.16669,5.33978 5.71958,10.29817 6.33442,12.30312 0.51989,1.69532 0.60845,2.56248 0.60802,5.95312 -5.6e-4,4.3375 -0.20801,5.62381 -1.61272,9.99994 -0.50425,1.57091 -0.87936,3.04027 -0.83357,3.26525 0.0958,0.47064 4.91886,2.73632 9.60825,4.51355 1.74625,0.66182 5.31813,2.21673 7.9375,3.45537 4.00935,1.89592 16.29755,7.14659 16.83596,7.19391 0.092,0.008 0.24599,-5.31336 0.34229,-11.82541 z m -5.12336,-66.013539 c 0.0161,-0.0652 0.29819,-6.89215 0.66958,-16.20573 l 0.18991,-4.7625 -1.41248,1.719792 c -0.77687,0.945885 -2.01167,2.424561 -2.74402,3.285945 -1.55868,1.833327 -1.59609,2.012073 -1.89829,9.069043 l -0.19484,4.54977 1.1555,0.46234 c 0.63552,0.25429 1.75533,0.7797 2.48845,1.16758 1.28502,0.67988 1.71148,0.85419 1.74619,0.71376 z m 34.626008,-1.47476 2.49549,-1.23722 -0.0612,-2.51354 c -0.0605,-2.48224 -0.40627,-6.6001 -0.71695,-8.537465 -0.10918,-0.680838 -0.69084,-1.659898 -1.83486,-3.088489 -0.92126,-1.150408 -2.09716,-2.718506 -2.61312,-3.484663 l -0.93811,-1.393011 0.13055,5.407542 c 0.33357,13.816976 0.43971,16.123156 0.7411,16.103616 0.16589,-0.0108 1.4246,-0.57631 2.79712,-1.25677 z m -44.691268,-4.87524 c 0.003,-1.34607 0.17912,-4.05474 0.39162,-6.019272 0.21249,-1.964531 0.38872,-3.672748 0.39161,-3.796038 0.003,-0.123289 0.76076,-1.016258 1.68414,-1.984374 2.18932,-2.295377 7.18816,-8.677439 9.0985,-11.616133 0.82766,-1.273202 2.29416,-3.357251 3.25889,-4.631221 3.10455,-4.09971 3.919168,-6.638405 2.7599,-8.600905 -0.74905,-1.268027 -1.87453,-1.706881 -3.55846,-1.38753 -1.63935,0.310895 -1.87977,0.437608 -1.70324,0.897657 0.58256,1.518105 -5.65238,10.529021 -14.97405,21.640969 -1.09141,1.301016 -2.2028,2.638358 -2.46976,2.971871 -0.49611,0.619785 -1.06324,5.375324 -1.2775,10.711996 l -0.0892,2.22191 2.91042,0.98777 c 1.60073,0.54328 3.05924,1.00193 3.24115,1.01923 0.24267,0.0231 0.33213,-0.62013 0.33598,-2.41593 z m 58.364588,0.22383 c 0.41081,-0.15764 0.3147,-1.96752 -0.2964,-5.58164 -0.19685,-1.16417 -0.50048,-3.247764 -0.67473,-4.630211 -0.29643,-2.351731 -0.38089,-2.581673 -1.31197,-3.571875 -2.57651,-2.740089 -13.41439,-16.873925 -14.82219,-19.329821 -0.4957,-0.864744 -1.14755,-2.286636 -1.44856,-3.159761 -0.49806,-1.444711 -0.6415,-1.61891 -1.59466,-1.93671 -2.25524,-0.751927 -4.0933,0.655813 -4.08329,3.127335 0.006,1.497265 0.6389,2.89741 2.54952,5.640848 0.82904,1.190398 2.28289,3.295453 3.23079,4.677901 2.19815,3.205836 7.46764,9.813346 9.83323,12.330076 1.42681,1.517965 1.38163,1.337198 1.84502,7.381378 0.1562,2.0373 0.3465,4.43438 0.42289,5.32686 l 0.1389,1.62269 2.92497,-0.87917 c 1.60873,-0.48355 3.08765,-0.9416 3.28648,-1.0179 z m -69.383118,-3.65544 c 0.19836,-3.372222 0.68351,-9.046552 0.8465,-9.900644 0.0594,-0.31136 0.79367,-1.338006 1.63167,-2.281435 3.30066,-3.715908 7.22225,-8.507243 9.90471,-12.101415 0.81455,-1.091406 2.14813,-2.817812 2.96351,-3.836458 2.83758,-3.544986 3.80677,-6.175417 2.99298,-8.123091 -0.53078,-1.270331 -1.51353,-1.88647 -2.97373,-1.864396 -1.58916,0.02403 -2.67315,0.755284 -4.51895,3.048487 -0.84639,1.051555 -2.49876,2.983479 -3.67192,4.293167 -4.30683,4.808012 -11.68871,13.267619 -12.74286,14.603268 l -1.08451,1.374102 0.47589,1.442527 c 1.31116,3.974387 1.67404,10.134608 0.78582,13.339888 -0.29105,1.05025 -0.52917,1.95338 -0.52917,2.00694 0,0.0536 0.74414,0.16838 1.65365,0.25515 0.9095,0.0868 2.12989,0.32721 2.71197,0.53429 0.58209,0.20708 1.13046,0.33548 1.21861,0.28533 0.0882,-0.0501 0.23928,-1.43422 0.33583,-3.07571 z m 77.622118,2.16542 c 1.05502,-0.16664 1.91822,-0.39631 1.91822,-0.51039 0,-0.11407 -0.18155,-0.72198 -0.40344,-1.35089 -1.07027,-3.033459 -0.51775,-10.67427 1.05298,-14.561791 0.12239,-0.302895 -1.33523,-2.135657 -5.06751,-6.37176 -2.88163,-3.270608 -6.54365,-7.544113 -8.13784,-9.496676 -5.89055,-7.214755 -6.65728,-7.915739 -8.65811,-7.915739 -1.82062,0 -3.02695,1.62066 -2.77703,3.730838 0.21098,1.78141 1.12254,3.391341 3.79591,6.704046 1.28462,1.591843 3.0406,3.794499 3.90217,4.894791 0.86157,1.100293 2.46892,3.090976 3.57187,4.42374 3.09231,3.736602 5.46818,6.775516 5.81697,7.440331 0.17404,0.331718 0.48717,2.062257 0.69586,3.845643 0.20869,1.783385 0.50028,3.879715 0.64797,4.65851 0.1477,0.778797 0.26854,2.242637 0.26854,3.252987 v 1.83699 l 0.7276,-0.13883 c 0.40018,-0.0764 1.59081,-0.27517 2.64584,-0.4418 z M 52.680692,76.48664 c 1.39337,-0.901252 0.45221,-5.570701 -1.07797,-5.348201 -0.72281,0.105102 -0.9137,0.861098 -0.94618,3.747256 l -0.0264,2.343787 0.72761,-0.178893 c 0.40018,-0.09839 0.99549,-0.352168 1.32291,-0.563949 z M 164.13641,74.5792 c 0,-2.427098 -0.20752,-3.227917 -0.83647,-3.227917 -0.3882,0 -0.80664,2.261268 -0.65544,3.542016 0.1416,1.199424 0.74236,2.278817 1.26833,2.278817 0.12297,0 0.22358,-1.166812 0.22358,-2.592916 z"
         id="path1" />
    </g>
  </g>
</svg>
