<?xml version="1.0" encoding="utf-8" ?>
<svg baseProfile="tiny" height="1024" version="1.2" viewBox="0,0,1024,1024" width="1024" xmlns="http://www.w3.org/2000/svg" xmlns:ev="http://www.w3.org/2001/xml-events" xmlns:xlink="http://www.w3.org/1999/xlink"><defs /><path d="M 424,166 L 423,167 L 418,167 L 417,168 L 415,168 L 414,169 L 413,169 L 412,170 L 411,170 L 410,171 L 409,171 L 408,172 L 407,172 L 394,185 L 394,186 L 388,192 L 388,193 L 383,198 L 383,199 L 377,205 L 377,206 L 367,216 L 367,217 L 361,223 L 361,224 L 356,229 L 356,230 L 350,236 L 350,237 L 342,245 L 342,246 L 331,257 L 329,257 L 328,256 L 328,255 L 325,252 L 324,252 L 321,249 L 320,249 L 319,248 L 318,248 L 317,247 L 316,247 L 315,246 L 314,246 L 313,245 L 310,245 L 309,244 L 297,244 L 296,245 L 293,245 L 292,246 L 290,246 L 289,247 L 288,247 L 287,248 L 286,248 L 285,249 L 284,249 L 278,255 L 278,256 L 277,257 L 277,258 L 276,259 L 276,261 L 275,262 L 275,264 L 274,265 L 274,268 L 273,269 L 273,312 L 272,313 L 272,330 L 271,331 L 271,361 L 270,362 L 270,411 L 271,412 L 271,433 L 272,434 L 272,437 L 273,438 L 273,440 L 274,441 L 274,443 L 275,444 L 275,446 L 276,447 L 276,448 L 277,449 L 277,450 L 278,451 L 278,452 L 279,453 L 279,454 L 280,455 L 280,456 L 282,458 L 282,459 L 283,460 L 283,461 L 284,462 L 284,463 L 286,465 L 286,466 L 287,467 L 287,468 L 288,469 L 288,470 L 290,472 L 290,473 L 291,474 L 291,475 L 292,476 L 292,477 L 294,479 L 294,480 L 296,482 L 296,483 L 297,484 L 297,485 L 299,487 L 299,488 L 300,489 L 300,490 L 301,491 L 301,492 L 303,494 L 303,495 L 304,496 L 304,497 L 306,499 L 306,500 L 307,501 L 307,502 L 308,503 L 308,504 L 309,505 L 309,506 L 311,508 L 311,509 L 312,510 L 312,511 L 314,513 L 314,514 L 315,515 L 315,516 L 316,517 L 316,518 L 318,520 L 318,522 L 319,523 L 319,524 L 320,525 L 320,526 L 321,527 L 321,528 L 322,529 L 322,531 L 323,532 L 323,534 L 324,535 L 324,539 L 325,540 L 325,547 L 326,548 L 326,565 L 325,566 L 325,571 L 324,572 L 324,574 L 323,575 L 323,577 L 322,578 L 322,579 L 321,580 L 321,582 L 320,583 L 320,585 L 319,586 L 319,588 L 318,589 L 318,590 L 317,591 L 317,592 L 316,593 L 316,594 L 315,595 L 315,596 L 313,598 L 313,599 L 311,601 L 311,602 L 310,603 L 310,605 L 309,606 L 309,608 L 308,609 L 308,610 L 307,611 L 307,613 L 306,614 L 306,615 L 305,616 L 305,617 L 304,618 L 304,620 L 303,621 L 303,622 L 302,623 L 302,625 L 301,626 L 301,627 L 300,628 L 300,630 L 299,631 L 299,633 L 298,634 L 298,636 L 297,637 L 297,638 L 296,639 L 296,641 L 295,642 L 295,644 L 294,645 L 294,646 L 293,647 L 293,649 L 292,650 L 292,652 L 291,653 L 291,654 L 290,655 L 290,656 L 289,657 L 289,658 L 288,659 L 288,660 L 287,661 L 287,662 L 286,663 L 286,664 L 285,665 L 285,666 L 284,667 L 284,668 L 283,669 L 283,670 L 282,671 L 282,672 L 281,673 L 281,674 L 280,675 L 280,677 L 279,678 L 279,684 L 283,688 L 284,688 L 285,689 L 291,689 L 292,688 L 293,688 L 294,687 L 294,686 L 295,685 L 295,683 L 296,682 L 296,681 L 297,680 L 297,679 L 298,678 L 298,676 L 299,675 L 299,674 L 300,673 L 300,671 L 301,670 L 301,669 L 302,668 L 302,666 L 303,665 L 303,663 L 304,662 L 304,661 L 305,660 L 305,658 L 306,657 L 306,655 L 307,654 L 307,653 L 308,652 L 308,651 L 309,650 L 309,649 L 310,648 L 310,647 L 311,646 L 311,645 L 312,644 L 312,643 L 313,642 L 313,640 L 314,639 L 314,637 L 315,636 L 315,634 L 316,633 L 316,632 L 317,631 L 317,629 L 318,628 L 318,627 L 319,626 L 319,624 L 320,623 L 320,619 L 321,618 L 322,618 L 323,619 L 325,619 L 326,620 L 327,620 L 328,621 L 329,621 L 330,622 L 331,622 L 332,623 L 333,623 L 334,624 L 336,624 L 337,625 L 338,625 L 339,626 L 341,626 L 342,627 L 343,627 L 344,628 L 346,628 L 347,629 L 348,629 L 349,630 L 350,630 L 351,631 L 353,631 L 354,632 L 355,632 L 356,633 L 357,633 L 358,634 L 360,634 L 361,635 L 362,635 L 363,636 L 365,636 L 366,637 L 367,637 L 368,638 L 370,638 L 371,639 L 372,639 L 373,640 L 374,640 L 375,641 L 377,641 L 378,642 L 379,642 L 380,643 L 381,643 L 382,644 L 383,644 L 384,645 L 385,645 L 386,646 L 388,646 L 389,647 L 390,647 L 391,648 L 392,648 L 393,649 L 395,649 L 397,651 L 398,651 L 399,652 L 400,652 L 401,653 L 403,653 L 404,654 L 405,654 L 406,655 L 408,655 L 409,656 L 410,656 L 411,657 L 412,657 L 413,658 L 414,658 L 415,659 L 417,659 L 418,660 L 419,660 L 420,661 L 421,661 L 422,662 L 423,662 L 424,663 L 425,663 L 426,664 L 427,664 L 428,665 L 430,665 L 431,666 L 432,666 L 433,667 L 435,667 L 436,668 L 437,668 L 438,669 L 439,669 L 440,670 L 441,670 L 442,671 L 444,671 L 445,672 L 446,672 L 447,673 L 449,673 L 450,674 L 451,674 L 452,675 L 453,675 L 454,676 L 455,676 L 456,677 L 457,677 L 459,679 L 460,679 L 461,680 L 462,680 L 463,681 L 465,681 L 468,684 L 468,719 L 467,720 L 467,743 L 468,744 L 468,764 L 470,766 L 471,766 L 472,767 L 477,767 L 478,766 L 480,766 L 481,765 L 482,765 L 483,764 L 483,763 L 484,762 L 484,740 L 485,739 L 485,696 L 486,695 L 486,675 L 483,672 L 483,670 L 482,669 L 483,668 L 483,593 L 484,592 L 484,574 L 485,573 L 485,571 L 486,570 L 486,569 L 490,565 L 490,564 L 493,561 L 493,560 L 495,558 L 495,557 L 497,555 L 497,554 L 500,551 L 500,550 L 501,549 L 501,548 L 502,547 L 502,546 L 503,545 L 503,543 L 504,542 L 504,540 L 505,539 L 506,539 L 507,540 L 507,541 L 508,542 L 508,543 L 509,544 L 509,545 L 510,546 L 510,547 L 512,549 L 512,550 L 513,551 L 513,552 L 514,553 L 514,554 L 516,556 L 516,557 L 518,559 L 518,560 L 519,561 L 519,562 L 522,565 L 522,566 L 523,567 L 523,568 L 524,569 L 524,570 L 525,571 L 525,572 L 526,573 L 526,579 L 527,580 L 527,645 L 528,646 L 528,670 L 527,671 L 527,672 L 523,676 L 523,677 L 522,678 L 522,703 L 523,704 L 523,745 L 524,746 L 524,760 L 525,761 L 525,763 L 528,766 L 529,766 L 530,767 L 539,767 L 540,766 L 541,766 L 542,765 L 542,764 L 543,763 L 543,754 L 542,753 L 542,742 L 541,741 L 541,724 L 540,723 L 540,699 L 539,698 L 539,684 L 540,683 L 541,683 L 542,682 L 543,682 L 544,681 L 545,681 L 546,680 L 547,680 L 548,679 L 550,679 L 551,678 L 552,678 L 553,677 L 554,677 L 555,676 L 556,676 L 557,675 L 559,675 L 560,674 L 561,674 L 562,673 L 563,673 L 564,672 L 565,672 L 566,671 L 567,671 L 568,670 L 569,670 L 570,669 L 571,669 L 572,668 L 573,668 L 574,667 L 575,667 L 576,666 L 578,666 L 579,665 L 580,665 L 581,664 L 582,664 L 583,663 L 585,663 L 586,662 L 587,662 L 588,661 L 589,661 L 590,660 L 592,660 L 593,659 L 594,659 L 595,658 L 596,658 L 597,657 L 598,657 L 599,656 L 600,656 L 601,655 L 603,655 L 605,653 L 606,653 L 607,652 L 609,652 L 610,651 L 611,651 L 612,650 L 613,650 L 614,649 L 615,649 L 616,648 L 618,648 L 619,647 L 620,647 L 621,646 L 622,646 L 623,645 L 624,645 L 625,644 L 626,644 L 627,643 L 628,643 L 629,642 L 630,642 L 631,641 L 632,641 L 633,640 L 635,640 L 636,639 L 637,639 L 638,638 L 639,638 L 640,637 L 642,637 L 643,636 L 644,636 L 645,635 L 646,635 L 647,634 L 649,634 L 650,633 L 651,633 L 652,632 L 654,632 L 655,631 L 656,631 L 657,630 L 658,630 L 659,629 L 661,629 L 662,628 L 663,628 L 664,627 L 665,627 L 666,626 L 668,626 L 669,625 L 670,625 L 671,624 L 673,624 L 674,623 L 675,623 L 676,622 L 677,622 L 678,621 L 680,621 L 681,620 L 682,620 L 683,619 L 684,619 L 685,618 L 687,620 L 687,622 L 688,623 L 688,624 L 689,625 L 689,626 L 690,627 L 690,629 L 691,630 L 691,631 L 692,632 L 692,633 L 693,634 L 693,636 L 694,637 L 694,638 L 695,639 L 695,641 L 696,642 L 696,644 L 697,645 L 697,646 L 698,647 L 698,649 L 699,650 L 699,652 L 700,653 L 700,654 L 701,655 L 701,656 L 702,657 L 702,658 L 704,660 L 704,662 L 705,663 L 705,664 L 706,665 L 706,666 L 707,667 L 707,668 L 708,669 L 708,670 L 709,671 L 709,672 L 710,673 L 710,675 L 711,676 L 711,677 L 712,678 L 712,680 L 713,681 L 713,682 L 714,683 L 714,685 L 715,686 L 715,687 L 718,690 L 723,690 L 724,689 L 725,689 L 729,685 L 729,684 L 730,683 L 730,681 L 731,680 L 731,678 L 730,677 L 730,675 L 729,674 L 729,673 L 728,672 L 728,670 L 727,669 L 727,668 L 726,667 L 726,666 L 725,665 L 725,664 L 724,663 L 724,662 L 723,661 L 723,660 L 722,659 L 722,658 L 721,657 L 721,656 L 720,655 L 720,654 L 719,653 L 719,652 L 718,651 L 718,650 L 717,649 L 717,648 L 716,647 L 716,645 L 715,644 L 715,643 L 714,642 L 714,641 L 713,640 L 713,639 L 712,638 L 712,636 L 711,635 L 711,634 L 710,633 L 710,632 L 709,631 L 709,629 L 708,628 L 708,626 L 707,625 L 707,623 L 706,622 L 706,621 L 705,620 L 705,619 L 704,618 L 704,616 L 703,615 L 703,614 L 702,613 L 702,611 L 701,610 L 701,607 L 700,606 L 700,604 L 699,603 L 699,601 L 698,600 L 698,599 L 697,599 L 695,597 L 695,596 L 694,595 L 694,594 L 693,593 L 693,592 L 692,591 L 692,590 L 691,589 L 691,587 L 690,586 L 690,583 L 689,582 L 689,579 L 688,578 L 688,573 L 687,572 L 687,566 L 686,565 L 686,542 L 687,541 L 687,536 L 688,535 L 688,532 L 689,531 L 689,530 L 690,529 L 690,527 L 691,526 L 691,525 L 692,524 L 692,522 L 693,521 L 693,520 L 694,519 L 694,518 L 695,517 L 695,516 L 697,514 L 697,513 L 699,511 L 699,510 L 700,509 L 700,508 L 701,507 L 701,506 L 702,505 L 702,504 L 703,503 L 703,502 L 705,500 L 705,499 L 707,497 L 707,496 L 709,494 L 709,493 L 710,492 L 710,491 L 711,490 L 711,489 L 712,488 L 712,487 L 713,486 L 713,485 L 714,484 L 714,483 L 716,481 L 716,480 L 717,479 L 717,478 L 719,476 L 719,475 L 721,473 L 721,472 L 722,471 L 722,470 L 724,468 L 724,466 L 725,465 L 725,464 L 726,463 L 726,462 L 728,460 L 728,459 L 730,457 L 730,456 L 731,455 L 731,454 L 732,453 L 732,452 L 733,451 L 733,450 L 734,449 L 734,447 L 735,446 L 735,445 L 736,444 L 736,443 L 737,442 L 737,440 L 738,439 L 738,437 L 739,436 L 739,432 L 740,431 L 740,416 L 739,415 L 739,334 L 738,333 L 738,280 L 737,279 L 737,268 L 736,267 L 736,263 L 735,262 L 735,260 L 734,259 L 734,258 L 732,256 L 732,255 L 731,254 L 731,253 L 727,249 L 726,249 L 724,247 L 723,247 L 722,246 L 721,246 L 720,245 L 718,245 L 717,244 L 713,244 L 712,243 L 703,243 L 702,244 L 698,244 L 697,245 L 696,245 L 695,246 L 693,246 L 692,247 L 691,247 L 689,249 L 688,249 L 682,255 L 682,256 L 681,257 L 680,257 L 667,244 L 667,243 L 664,240 L 664,239 L 657,232 L 657,231 L 651,225 L 651,224 L 644,217 L 644,216 L 639,211 L 639,210 L 634,205 L 634,204 L 630,200 L 630,199 L 626,195 L 626,194 L 622,190 L 622,189 L 617,184 L 617,183 L 608,174 L 607,174 L 605,172 L 604,172 L 602,170 L 600,170 L 599,169 L 598,169 L 597,168 L 595,168 L 594,167 L 591,167 L 590,166 L 582,166 L 581,167 L 578,167 L 577,168 L 575,168 L 574,169 L 573,169 L 572,170 L 571,170 L 565,176 L 565,177 L 562,180 L 562,181 L 560,183 L 559,182 L 558,182 L 557,181 L 556,181 L 555,180 L 550,180 L 549,179 L 542,179 L 541,180 L 537,180 L 536,181 L 535,181 L 534,182 L 533,182 L 532,183 L 531,183 L 523,191 L 523,192 L 521,194 L 521,195 L 520,196 L 520,199 L 519,200 L 519,216 L 520,217 L 520,220 L 521,221 L 521,223 L 522,224 L 522,225 L 523,226 L 521,228 L 519,228 L 518,229 L 517,229 L 515,231 L 514,231 L 511,234 L 510,234 L 508,236 L 508,237 L 506,239 L 505,239 L 502,236 L 502,235 L 501,235 L 498,232 L 497,232 L 495,230 L 494,230 L 493,229 L 491,229 L 489,227 L 489,226 L 490,225 L 490,223 L 491,222 L 491,220 L 492,219 L 492,216 L 493,215 L 493,203 L 492,202 L 492,198 L 491,197 L 491,196 L 490,195 L 490,194 L 489,193 L 489,192 L 485,188 L 485,187 L 484,186 L 483,186 L 480,183 L 479,183 L 478,182 L 477,182 L 476,181 L 474,181 L 473,180 L 458,180 L 457,181 L 456,181 L 455,182 L 454,182 L 452,184 L 450,182 L 450,181 L 449,180 L 449,179 L 447,177 L 447,176 L 442,171 L 441,171 L 440,170 L 439,170 L 438,169 L 437,169 L 436,168 L 434,168 L 433,167 L 429,167 L 428,166 L 427,167 L 425,167 Z" fill="none" stroke="currentColor" stroke-linecap="round" stroke-linejoin="round" stroke-width="2" /></svg>