<?xml version="1.0" encoding="UTF-8" standalone="no"?>
<!-- Created with Inkscape (http://www.inkscape.org/) -->

<svg
   width="210mm"
   height="297mm"
   viewBox="0 0 210 297"
   version="1.1"
   id="svg1"
   xml:space="preserve"
   sodipodi:docname="mosque_icone.svg"
   inkscape:export-filename="mosque_icone1.svg"
   inkscape:export-xdpi="45"
   inkscape:export-ydpi="45"
   inkscape:version="1.4 (1:1.4+202410161351+e7c3feb100)"
   xmlns:inkscape="http://www.inkscape.org/namespaces/inkscape"
   xmlns:sodipodi="http://sodipodi.sourceforge.net/DTD/sodipodi-0.dtd"
   xmlns="http://www.w3.org/2000/svg"
   xmlns:svg="http://www.w3.org/2000/svg"><sodipodi:namedview
     id="namedview1"
     pagecolor="#505050"
     bordercolor="#eeeeee"
     borderopacity="1"
     inkscape:showpageshadow="0"
     inkscape:pageopacity="0"
     inkscape:pagecheckerboard="0"
     inkscape:deskcolor="#d1d1d1"
     inkscape:document-units="mm"
     showgrid="false"
     inkscape:zoom="0.74653479"
     inkscape:cx="397.16836"
     inkscape:cy="561.25984"
     inkscape:window-width="2502"
     inkscape:window-height="1043"
     inkscape:window-x="0"
     inkscape:window-y="0"
     inkscape:window-maximized="1"
     inkscape:current-layer="svg1" /><defs
     id="defs1" /><g
     id="layer1"
     inkscape:export-filename="mosque_icone1.svg"
     inkscape:export-xdpi="25"
     inkscape:export-ydpi="25"><path
       style="fill:#6096ba;fill-opacity:1"
       d="m 37.147928,205.98698 c -0.54347,-0.41761 -0.642038,-0.69574 -0.58396,-1.64776 0.13174,-2.15952 0.221935,-95.06861 0.09672,-99.63649 l -0.125106,-4.56406 -1.138096,0 c -0.821113,0 -1.344859,-0.177673 -1.880455,-0.637917 l -0.742358,-0.637916 -0.08547,-4.009242 c -0.09803,-4.598397 0.03133,-5.000098 1.778707,-5.523626 0.741577,-0.222182 1.084887,-0.473936 1.084887,-0.795564 0,-0.258788 0.181206,-1.080709 0.402679,-1.826491 1.10123,-3.708242 6.317963,-6.681565 10.256836,-5.845973 3.528134,0.748458 5.916006,3.076899 6.814417,6.644813 0.310767,1.234168 0.678521,1.507547 2.039088,1.515804 0.327422,0.002 0.833438,0.241738 1.124479,0.532779 0.484776,0.484776 0.529167,0.881945 0.529167,4.734519 v 4.205352 l -0.744023,0.79648 c -0.591228,0.63291 -1.053085,0.835092 -2.248959,0.984512 l -1.504934,0.18803 v 16.61662 c 0,9.13914 0.07227,16.80495 0.160599,17.03514 0.142822,0.37219 1.358215,0.41851 10.980207,0.41851 h 10.819609 v -6.49543 c 0,-6.92281 0.143784,-7.8147 1.320015,-8.18802 0.489213,-0.15527 0.532141,-0.39653 0.532972,-2.99531 0.0028,-8.67368 1.50294,-15.23253 5.012238,-21.91393 2.08452,-3.968744 3.940933,-6.430747 7.671848,-10.174517 4.30789,-4.322733 8.863702,-7.23466 17.15127,-10.962538 3.80932,-1.713492 4.8451,-1.780927 8.01826,-0.522034 8.5233,3.38146 14.33856,7.071411 19.44278,12.337016 2.93738,3.030251 4.72798,5.436067 6.86766,9.227267 1.77869,3.151585 2.51793,5.129321 3.68849,9.868076 1.13435,4.59215 1.46738,7.22584 1.46738,11.60455 0,3.13629 0.0358,3.37391 0.53207,3.53142 1.13559,0.36042 1.4103,1.54693 1.22975,5.31148 -0.0916,1.90932 -0.0905,4.7991 0.002,6.42173 l 0.1688,2.95024 h 10.76395 10.76395 l 0.0613,-12.60319 c 0.0337,-6.93176 -0.0223,-14.64792 -0.12444,-17.14704 l -0.18571,-4.54384 h -1.28215 c -0.98422,0 -1.43704,-0.1455 -1.94868,-0.626166 -0.65739,-0.617585 -0.66653,-0.68308 -0.66653,-4.7777 0,-4.690618 0.21979,-5.329607 1.94451,-5.653166 0.82627,-0.155009 0.90806,-0.259922 1.05854,-1.357793 0.0897,-0.654392 0.35641,-1.563657 0.59269,-2.020588 0.78869,-1.525156 2.70096,-3.296437 4.41206,-4.086764 1.4328,-0.661788 1.96231,-0.761554 4.03074,-0.759437 2.06312,0.0021 2.55799,0.09602 3.70417,0.702932 0.7276,0.385273 1.64036,1.03902 2.02835,1.452772 0.96839,1.032703 1.98702,3.034035 2.20702,4.336223 0.19389,1.147632 0.22937,1.176006 1.79652,1.436878 1.67888,0.279471 2.03602,1.185837 2.03544,5.165633 -7.5e-4,5.070273 -0.37114,5.838068 -2.99499,6.208376 -0.963,0.1359 -1.24148,0.27457 -1.13078,0.56304 0.0808,0.2105 0.15557,23.80593 0.16621,52.4343 l 0.0194,52.05157 -0.60676,0.49155 c -0.52652,0.42656 -0.88372,0.4674 -2.7014,0.30884 -3.5319,-0.30809 -139.265093,-0.19672 -140.885795,0.11559 -1.95907,0.37753 -2.441396,0.34139 -3.197407,-0.23954 z m 10.085102,-87.7905 -0.09373,-17.52864 -2.591412,0 h -2.591412 l -0.09298,13.03073 c -0.05114,7.1669 -0.05085,29.72508 6.47e-4,50.12928 l 0.09363,37.09857 2.552203,0.0754 2.552204,0.0754 0.132291,-32.67604 c 0.07276,-17.97183 0.09011,-40.56393 0.03856,-50.20469 z m 43.353103,58.26598 c 0,-20.2535 0.06527,-24.90325 0.359445,-25.60731 0.21568,-0.5162 2.184594,-2.5499 4.922745,-5.08473 2.509815,-2.32345 6.285537,-5.8318 8.390487,-7.79634 2.10495,-1.96453 4.2532,-3.89929 4.77388,-4.29947 1.02006,-0.78399 2.20281,-0.92956 3.14839,-0.3875 0.59694,0.34219 14.09996,12.92674 16.44156,15.32321 0.76545,0.78338 1.50959,1.8353 1.65365,2.33761 0.1644,0.57323 0.26192,10.05127 0.26192,25.45514 v 24.54184 h 5.68855 5.68854 v -38.35474 -38.35474 l -5.88698,-0.077 c -3.23784,-0.0423 -17.31698,-0.0555 -31.28698,-0.0292 l -25.399998,0.0478 -0.07656,37.25947 c -0.04211,20.49271 -0.0054,37.76305 0.08154,38.37853 l 0.158104,1.11905 5.342414,0.0774 c 2.938328,0.0426 5.431712,0.10452 5.540852,0.13772 0.109141,0.0332 0.198438,-11.07582 0.198438,-24.68669 z m 17.459117,5.11596 0.009,-19.63107 0.59267,-0.63762 c 0.32597,-0.35069 0.87771,-0.74763 1.22609,-0.88208 0.78103,-0.30141 2.15444,0.10962 2.81865,0.84357 0.447,0.49393 0.46983,1.61249 0.40998,20.08879 l -0.0634,19.56575 6.06256,0.0757 6.06255,0.0757 0.1868,-24.32546 0.18681,-24.32545 -3.65079,-3.68194 c -3.1046,-3.1311 -5.51368,-5.30898 -10.51489,-9.50578 l -0.85787,-0.71989 -1.1236,0.98447 c -5.58933,4.89722 -9.517785,8.4776 -11.46119,10.44568 l -2.315104,2.34451 v 21.10924 c 0,11.61008 0.0777,22.55437 0.172675,24.32064 l 0.172675,3.2114 5.582014,0.0768 c 3.0701,0.0423 5.78766,0.10411 6.039,0.13743 0.42931,0.0569 0.45752,-1.12877 0.46567,-19.57048 z m 71.32262,-1.14846 c -0.0448,-11.05422 -0.096,-33.52288 -0.11387,-49.93035 l -0.0325,-29.83177 h -2.78031 -2.78031 l 0.0133,50.1294 0.0134,50.12941 2.70082,0.0753 c 1.65636,0.0462 2.77044,-0.0308 2.88085,-0.19905 0.099,-0.15089 0.14338,-9.3187 0.0986,-20.37292 z M 74.181967,170.411 v -30.53391 l -2.711979,-0.17323 c -1.491588,-0.0953 -6.402916,-0.13651 -10.914062,-0.0916 l -8.202083,0.0816 -0.06725,30.47361 c -0.06369,28.86012 -0.04268,30.48003 0.396875,30.59483 0.255272,0.0667 5.196864,0.13502 10.981317,0.1519 l 10.517187,0.0307 z m 94.671483,-0.0697 c -0.0456,-16.7592 -0.16037,-30.54865 -0.25499,-30.64322 -0.0946,-0.0946 -5.00596,-0.2423 -10.91407,-0.32827 l -10.74201,-0.15633 v 30.68931 c 0,16.87912 0.0551,30.74445 0.12253,30.81184 0.0674,0.0674 5.01605,0.117 10.99701,0.11024 l 10.87448,-0.0123 z m -28.96017,-52.28992 c 0.0909,-0.75696 0.16637,-2.00137 0.16763,-2.76535 l 0.002,-1.38907 H 110.73216 81.4011 l -0.169983,1.62631 c -0.09349,0.89448 -0.169976,2.11487 -0.169967,2.71198 l 1.7e-5,1.08567 29.333393,0.0534 29.33339,0.0534 z m -0.22359,-10.0414 c -1.09773,-5.52066 -2.62839,-9.326141 -5.45412,-13.559891 -3.5262,-5.283268 -8.39753,-9.738295 -14.43202,-13.198678 -2.72831,-1.564507 -8.31052,-3.866947 -9.37531,-3.866947 -0.94665,0 -6.6752,2.499689 -9.76794,4.262302 -7.952591,4.532337 -12.033372,8.547929 -15.968836,15.713739 -0.950279,1.730296 -2.260839,5.686575 -2.673206,8.069795 -0.239204,1.38244 -0.477235,2.7219 -0.528959,2.97656 -0.08911,0.43874 1.438555,0.46302 29.138671,0.46302 h 29.23271 z M 51.547532,96.103774 c 0.05672,-0.181901 0.15407,-0.86651 0.216338,-1.521354 l 0.113216,-1.190625 h -6.971491 -6.971491 l -2.6e-5,1.256771 -2.6e-5,1.256771 1.918229,0.0016 c 3.47219,0.0029 10.880072,0.27311 11.008569,0.401607 0.232953,0.232953 0.582723,0.128661 0.686682,-0.20475 z M 183.03616,94.781066 c 0.13351,-0.69111 0.19304,-1.286813 0.13229,-1.323785 -0.0607,-0.03697 -3.08701,-0.02831 -6.72503,0.01925 l -6.61458,0.08647 0.092,1.308109 0.092,1.30811 6.39029,-0.07079 6.3903,-0.07079 z M 47.677928,87.685869 c -0.297911,-0.854589 -1.720865,-1.949789 -2.908431,-2.238523 -0.936602,-0.227718 -2.452659,0.507772 -3.278505,1.590512 -0.355588,0.4662 -0.646523,0.985226 -0.646523,1.153391 0,0.216127 1.043013,0.305755 3.558111,0.305755 h 3.558111 z m 131.808202,0.25583 c 0,-1.265485 -2.48218,-2.656937 -4.03316,-2.260892 -0.90445,0.230953 -2.58142,1.729195 -2.58142,2.306293 0,0.476288 0.21803,0.509904 3.30729,0.509904 3.18279,0 3.30729,-0.0209 3.30729,-0.555305 z"
       id="path1" /></g></svg>
